<?xml version="1.0" encoding="UTF-8"?>
<svg width="420px" height="78px" viewBox="0 0 420 78" version="1.1" xmlns="http://www.w3.org/2000/svg" xmlns:xlink="http://www.w3.org/1999/xlink">
    <!-- Generator: Sketch 53.1 (72631) - https://sketchapp.com -->
    <title>*******</title>
    <desc>Created with Sketch.</desc>
    <g id="design" stroke="none" stroke-width="1" fill="none" fill-rule="evenodd">
        <g id="176-reset" transform="translate(-510.000000, -392.000000)" fill="#F2F2F2" fill-rule="nonzero">
            <g id="Group-35" transform="translate(510.000000, 204.000000)">
                <path d="M-70.5843521,255.775281 L-91.1222494,243.700375 L-89.4596577,266 L-112.540342,266 L-110.877751,243.700375 L-131.415648,255.775281 L-140.9022,239.026217 L-118.701711,227.146067 L-141,215.071161 L-131.415648,198.029963 L-110.877751,210.299625 L-112.540342,188 L-89.4596577,188 L-91.1222494,210.299625 L-70.5843521,198.029963 L-61,215.071161 L-83.2982885,227.146067 L-61.0977995,239.026217 L-70.5843521,255.775281 Z M32.4156479,255.775281 L11.8777506,243.700375 L13.5403423,266 L-9.5403423,266 L-7.87775061,243.700375 L-28.4156479,255.775281 L-37.9022005,239.026217 L-15.7017115,227.146067 L-38,215.071161 L-28.4156479,198.029963 L-7.87775061,210.299625 L-9.5403423,188 L13.5403423,188 L11.8777506,210.299625 L32.4156479,198.029963 L42,215.071161 L19.7017115,227.146067 L41.9022005,239.026217 L32.4156479,255.775281 Z M136.415648,255.775281 L115.877751,243.700375 L117.540342,266 L94.4596577,266 L96.1222494,243.700375 L75.5843521,255.775281 L66.0977995,239.026217 L88.2982885,227.146067 L66,215.071161 L75.5843521,198.029963 L96.1222494,210.299625 L94.4596577,188 L117.540342,188 L115.877751,210.299625 L136.415648,198.029963 L146,215.071161 L123.701711,227.146067 L145.9022,239.026217 L136.415648,255.775281 Z M240.415648,255.775281 L219.877751,243.700375 L221.540342,266 L198.459658,266 L200.122249,243.700375 L179.584352,255.775281 L170.0978,239.026217 L192.298289,227.146067 L170,215.071161 L179.584352,198.029963 L200.122249,210.299625 L198.459658,188 L221.540342,188 L219.877751,210.299625 L240.415648,198.029963 L250,215.071161 L227.701711,227.146067 L249.9022,239.026217 L240.415648,255.775281 Z M343.415648,255.775281 L322.877751,243.700375 L324.540342,266 L301.459658,266 L303.122249,243.700375 L282.584352,255.775281 L273.0978,239.026217 L295.298289,227.146067 L273,215.071161 L282.584352,198.029963 L303.122249,210.299625 L301.459658,188 L324.540342,188 L322.877751,210.299625 L343.415648,198.029963 L353,215.071161 L330.701711,227.146067 L352.9022,239.026217 L343.415648,255.775281 Z M447.415648,255.775281 L426.877751,243.700375 L428.540342,266 L405.459658,266 L407.122249,243.700375 L386.584352,255.775281 L377.0978,239.026217 L399.298289,227.146067 L377,215.071161 L386.584352,198.029963 L407.122249,210.299625 L405.459658,188 L428.540342,188 L426.877751,210.299625 L447.415648,198.029963 L457,215.071161 L434.701711,227.146067 L456.9022,239.026217 L447.415648,255.775281 Z M550.415648,255.775281 L529.877751,243.700375 L531.540342,266 L508.459658,266 L510.122249,243.700375 L489.584352,255.775281 L480.0978,239.026217 L502.298289,227.146067 L480,215.071161 L489.584352,198.029963 L510.122249,210.299625 L508.459658,188 L531.540342,188 L529.877751,210.299625 L550.415648,198.029963 L560,215.071161 L537.701711,227.146067 L559.9022,239.026217 L550.415648,255.775281 Z" id="*******"></path>
            </g>
        </g>
    </g>
</svg>