<?xml version="1.0" encoding="UTF-8"?>
<svg width="19px" height="19px" viewBox="0 0 19 19" version="1.1" xmlns="http://www.w3.org/2000/svg" xmlns:xlink="http://www.w3.org/1999/xlink">
    <!-- Generator: Sketch 60.1 (88133) - https://sketch.com -->
    <title>Shape</title>
    <desc>Created with Sketch.</desc>
    <g id="Web" stroke="none" stroke-width="1" fill="none" fill-rule="evenodd">
        <g id="002.00-Programme---Map-List---Today" transform="translate(-536.000000, -1517.000000)" fill="#4A525C" fill-rule="nonzero">
            <g id="Group-2" transform="translate(133.000000, 1102.000000)">
                <g id="Group-12-Copy" transform="translate(402.000000, 353.000000)">
                    <path d="M10.6666667,62.6666667 C15.6346667,62.6666667 19.6666667,66.6986667 19.6666667,71.6666667 C19.6666667,76.6346667 15.6346667,80.6666667 10.6666667,80.6666667 C5.69866667,80.6666667 1.66666667,76.6346667 1.66666667,71.6666667 C1.66666667,66.6986667 5.69866667,62.6666667 10.6666667,62.6666667 Z M10.6666667,78.8666667 C14.6446667,78.8666667 17.8666667,75.6446667 17.8666667,71.6666667 C17.8666667,67.6886667 14.6446667,64.4666667 10.6666667,64.4666667 C6.68866667,64.4666667 3.46666667,67.6886667 3.46666667,71.6666667 C3.46666667,75.6446667 6.68866667,78.8666667 10.6666667,78.8666667 Z M13.8490667,67.2116667 L15.1216667,68.4842667 L10.6666667,72.9392667 L9.39406667,71.6666667 L13.8490667,67.2116667 L13.8490667,67.2116667 Z" id="Shape"></path>
                </g>
            </g>
        </g>
    </g>
</svg>