<svg id="Layer_1" data-name="Layer 1" xmlns="http://www.w3.org/2000/svg" viewBox="0 0 15 15"><g id="outline"><path d="M14.61,13.15V1.67A1.29,1.29,0,0,0,13.32.38H1.84A1.29,1.29,0,0,0,.55,1.67V13.15a1.28,1.28,0,0,0,1.29,1.29H13.32A1.29,1.29,0,0,0,14.61,13.15ZM1,1.67A.82.82,0,0,1,1.84.85H13.32a.82.82,0,0,1,.82.82V2.72H1ZM1,13.15v-10H14.14v10a.82.82,0,0,1-.82.82H1.84A.81.81,0,0,1,1,13.15Z"/><path d="M13.67,13.27V3.9a.23.23,0,0,0-.23-.24H1.72a.24.24,0,0,0-.24.24v9.37a.24.24,0,0,0,.24.24H13.44A.23.23,0,0,0,13.67,13.27ZM2,7.88H13.2v.47H2Zm4.92-.94a.24.24,0,0,1,.24.24.23.23,0,0,1-.24.23H6.64V6.94Zm-.7.47H5.66a.71.71,0,0,0-.43-.9.85.85,0,0,0-.23,0H4.81a.7.7,0,0,1,1.36.24Zm-1.4-.47H5a.23.23,0,0,1,.23.24A.23.23,0,0,1,5,7.41H4.77Zm-.47.47H2.89v-.7a.71.71,0,0,1,1.41,0Zm4.24,0,.19-1.87h1L9.9,7.41Zm2.34,0,.19-1.87h1l.19,1.87ZM13.2,4.13V7.41h-.49L12.5,5.28a.23.23,0,0,0-.23-.21H10.86a.23.23,0,0,0-.23.21l-.22,2.13h0l-.22-2.13a.23.23,0,0,0-.23-.21H8.52a.23.23,0,0,0-.24.21L8.07,7.41H7.54a.71.71,0,0,0-.43-.9,1,1,0,0,0-.24,0H6.62A1.17,1.17,0,0,0,4.53,6a1.17,1.17,0,0,0-1.64-.24,1.19,1.19,0,0,0-.47.94v.7H2V4.13Zm-3,7a.47.47,0,0,0-.47.47v.17a.46.46,0,0,1-.17-.64.47.47,0,0,1,.64-.17.46.46,0,0,1,.17.17Zm.17.47a.46.46,0,0,1-.17.17v-.17ZM10.16,13V12.3a.93.93,0,0,0,.67-.67h.72A1.65,1.65,0,0,1,10.16,13Zm.67-1.86A.94.94,0,1,0,9.69,12.3V13a1.64,1.64,0,1,1,1.86-1.86Zm-3,.24A2.08,2.08,0,0,0,8.6,13H8.52a1.64,1.64,0,1,1,0-3.28H8.6A2.1,2.1,0,0,0,7.81,11.4Zm-1.4,0A2.07,2.07,0,0,0,7.19,13H7.11a1.64,1.64,0,0,1,0-3.28h.08A2.09,2.09,0,0,0,6.41,11.4ZM5,11.4A2.13,2.13,0,0,0,5.78,13H5.7a1.64,1.64,0,0,1,0-3.28h.08A2.12,2.12,0,0,0,5,11.4Zm-1.41,0A2.11,2.11,0,0,0,4.37,13a1.64,1.64,0,0,1,0-3.27A2.12,2.12,0,0,0,3.59,11.4ZM11.25,13A2.12,2.12,0,0,0,12,11.63h.25V13Zm1.48,0V11.63a.47.47,0,0,0-.46-.47H12A2.1,2.1,0,0,0,9.69,9.3a1.89,1.89,0,0,0-.47.11,2.13,2.13,0,0,0-1.41,0,2.1,2.1,0,0,0-1.4,0,2.11,2.11,0,0,0-1.29,0A2.11,2.11,0,0,0,3.21,13H2V8.82H13.2V13Z"/><path d="M5.47,1.08H2.19A.24.24,0,0,0,2,1.32v.94a.23.23,0,0,0,.24.23H5.47a.23.23,0,0,0,.23-.23V1.32A.23.23,0,0,0,5.47,1.08ZM5.23,2H2.42V1.55H5.23Z"/><path d="M8.75,1.08a.7.7,0,0,0-.7.71.7.7,0,1,0,1.4,0A.7.7,0,0,0,8.75,1.08Zm0,.94a.23.23,0,0,1-.23-.23.23.23,0,1,1,.46,0A.23.23,0,0,1,8.75,2Z"/><path d="M6.87,1.08a.71.71,0,0,0-.7.71.71.71,0,0,0,1.41,0A.71.71,0,0,0,6.87,1.08Zm0,.94a.23.23,0,0,1-.23-.23.24.24,0,1,1,.47,0A.23.23,0,0,1,6.87,2Z"/><path d="M12.5,1.08a.7.7,0,0,0-.7.71.7.7,0,1,0,1.4,0A.7.7,0,0,0,12.5,1.08Zm0,.94a.23.23,0,0,1-.23-.23.23.23,0,1,1,.46,0A.23.23,0,0,1,12.5,2Z"/><path d="M10.62,1.08a.71.71,0,0,0-.7.71.71.71,0,0,0,1.41,0A.71.71,0,0,0,10.62,1.08Zm0,.94a.23.23,0,0,1-.23-.23.24.24,0,1,1,.47,0A.23.23,0,0,1,10.62,2Z"/><path d="M3.12,5.07h.24a.23.23,0,0,0,.23-.24.23.23,0,0,0-.23-.23H3.12a.23.23,0,0,0-.23.23A.24.24,0,0,0,3.12,5.07Z"/><path d="M4.3,5.07h.93a.24.24,0,0,0,.24-.24.23.23,0,0,0-.24-.23H4.3a.23.23,0,0,0-.24.23A.24.24,0,0,0,4.3,5.07Z"/></g></svg>