<svg id="Layer_1" data-name="Layer 1" xmlns="http://www.w3.org/2000/svg" viewBox="0 0 15 15"><path d="M14.76,3.77A.22.22,0,0,0,15,3.55V2.94a1.07,1.07,0,0,0-1.07-1.07H1.05A1.07,1.07,0,0,0,0,2.94v8.37a1.07,1.07,0,0,0,1.07,1.08h.23v.55a.42.42,0,0,0,.42.42H3a.42.42,0,0,0,.42-.42v-.55H4.64a.22.22,0,0,0,0-.44H1.05a.64.64,0,0,1-.63-.64V2.94a.63.63,0,0,1,.63-.63H10.9v.37a.86.86,0,0,0-.24,0,.67.67,0,0,0-.67.68v7.62a.67.67,0,0,0,.67.67.61.61,0,0,0,.24,0V12H5.67a.22.22,0,0,0,0,.44h5.91v.55a.42.42,0,0,0,.42.42h1.31a.42.42,0,0,0,.42-.42v-.55h.18A1.07,1.07,0,0,0,15,11.31V4.58a.22.22,0,0,0-.44,0v6.73a.64.64,0,0,1-.63.64H11.34V2.31h2.57a.63.63,0,0,1,.63.63v.61A.22.22,0,0,0,14.76,3.77ZM3,12.39v.53H1.72v-.53Zm10.31,0v.53H12v-.53Zm-2.63-1.22a.23.23,0,0,1-.23-.23V3.32a.23.23,0,0,1,.23-.24.24.24,0,0,1,.24.24v7.62A.23.23,0,0,1,10.66,11.17Z"/><path d="M14.13,6V3.33a.45.45,0,0,0-.45-.45H12.2a.45.45,0,0,0-.45.45V6a.45.45,0,0,0,.45.45h1.48A.45.45,0,0,0,14.13,6Zm-.44,0h-1.5V3.33a0,0,0,0,1,0,0h1.48a0,0,0,0,1,0,0Z"/><path d="M12.94,9.52a.93.93,0,1,0,0,1.85.93.93,0,0,0,0-1.85Zm0,1.41a.48.48,0,0,1-.49-.48.49.49,0,0,1,.49-.49.48.48,0,0,1,.48.49A.47.47,0,0,1,12.94,10.93Z"/><path d="M12.94,7a.93.93,0,1,0,0,1.85.93.93,0,0,0,0-1.85Zm0,1.41A.48.48,0,0,1,12.45,8a.49.49,0,0,1,.49-.49.48.48,0,0,1,.48.49A.47.47,0,0,1,12.94,8.43Z"/><path d="M9.54,10.31V3.94A.6.6,0,0,0,9,3.35H1.47a.59.59,0,0,0-.59.59v6.37a.58.58,0,0,0,.59.59H9A.59.59,0,0,0,9.54,10.31Zm-8.22,0V3.94a.15.15,0,0,1,.15-.15H9a.15.15,0,0,1,.15.15v6.37a.15.15,0,0,1-.15.15H1.47A.15.15,0,0,1,1.32,10.31Z"/></svg>