<svg id="Layer_1" data-name="Layer 1" xmlns="http://www.w3.org/2000/svg" viewBox="0 0 15 15"><path d="M11.35,13.63A.35.35,0,0,1,11,14H4.67a.35.35,0,0,1-.35-.35V2H3.85V13.63a.82.82,0,0,0,.82.82H11a.82.82,0,0,0,.82-.82v-3.4h-.47Z"/><path d="M11,.38H4.67a.82.82,0,0,0-.82.82v.35h.47V1.2A.35.35,0,0,1,4.67.85H11a.35.35,0,0,1,.35.35V9.76h.47V1.2A.82.82,0,0,0,11,.38Z"/><path d="M7.84,6a.46.46,0,0,1,.44.31l.44-.16a.94.94,0,0,0-1.19-.57A1,1,0,0,0,7,6.16l.45.16A.45.45,0,0,1,7.84,6Z"/><path d="M7.84,4.6a1.89,1.89,0,0,0-1.7,1.07l.43.2a1.39,1.39,0,0,1,1.87-.66,1.43,1.43,0,0,1,.67.66l.42-.2A1.88,1.88,0,0,0,7.84,4.6Z"/><path d="M5.22,5.45l.43.17a2.35,2.35,0,0,1,4.37,0l.44-.17A2.82,2.82,0,0,0,6.81,3.86,2.77,2.77,0,0,0,5.22,5.45Z"/><path d="M7.6,6.48h.47V7H7.6Z"/><path d="M5,8.12v2.11h.46V9.29H6.2V8.82H5.49V8.35H6.2V7.88H5.26A.23.23,0,0,0,5,8.12Z"/><path d="M7.84,8.76V8.12a.24.24,0,0,0-.24-.24H6.67a.24.24,0,0,0-.24.24v2.11H6.9V9.29H7a.35.35,0,0,1,.35.35v.59h.47V9.64a.79.79,0,0,0-.17-.49A.52.52,0,0,0,7.84,8.76Zm-.94.06V8.35h.47v.41a.06.06,0,0,1-.06.06Z"/><path d="M9.24,8.35V7.88H8.31a.24.24,0,0,0-.24.24V10a.24.24,0,0,0,.24.24h.93V9.76h-.7V9.29h.7V8.82h-.7V8.35Z"/><path d="M10.65,8.35V7.88H9.71a.23.23,0,0,0-.23.24V10a.23.23,0,0,0,.23.24h.94V9.76H10V9.29h.7V8.82H10V8.35Z"/><path d="M5.61,12.45v.24a.82.82,0,0,0,.82.82H9.24a.82.82,0,0,0,.82-.82v-.24a.82.82,0,0,0-.82-.82H6.43A.82.82,0,0,0,5.61,12.45Zm.47,0a.35.35,0,0,1,.35-.35H9.24a.36.36,0,0,1,.36.35v.24a.36.36,0,0,1-.36.35H6.43a.35.35,0,0,1-.35-.35Z"/><path d="M6.43,1.55H9.24V2H6.43Z"/></svg>