<svg id="Layer_1" data-name="Layer 1" xmlns="http://www.w3.org/2000/svg" viewBox="0 0 15 15"><path d="M10.39,8.08a1.37,1.37,0,0,0,.43-1.2h0A1.09,1.09,0,0,0,12,5.79a.76.76,0,0,0-.2-.53,3.1,3.1,0,0,0-.19-2.44.22.22,0,0,0-.39.21,2.7,2.7,0,0,1,.2,2,.78.78,0,0,0-.22,0h-.34a2.45,2.45,0,0,0-2-2.14,7.59,7.59,0,0,0-1.34-.12,3.67,3.67,0,0,1,2.58-.81,2.56,2.56,0,0,1,.59.45.22.22,0,0,0,.31,0,.21.21,0,0,0,0-.31,3,3,0,0,0-.67-.52A3.08,3.08,0,0,0,7.66,0H7.48a3.09,3.09,0,0,0-2.6,1.58A3.13,3.13,0,0,0,3.77,2.66a3.08,3.08,0,0,0-.3,2.59.85.85,0,0,0-.2.54A1.09,1.09,0,0,0,4.36,6.88h0v.28a1.18,1.18,0,0,0,.44.92A3.9,3.9,0,0,0,2.7,11.55V14.5a.49.49,0,0,0,.5.49H12a.49.49,0,0,0,.49-.49v-.67a.22.22,0,1,0-.44,0v.67a0,0,0,0,1-.05.05h-1.1v-3a1.16,1.16,0,0,0-1.16-1.16H8.91c0-.16.2-.19.2-.54a.22.22,0,1,0-.44,0s0,.06-.05.12a.56.56,0,0,0-.15.42H6.87a.22.22,0,1,0,0,.44h1.8a.16.16,0,0,1-.05.15.57.57,0,0,0-.15.39.22.22,0,0,0,.44,0c0-.05,0-.06.05-.11a.58.58,0,0,0,.15-.43h.66a.72.72,0,0,1,.72.72v3H4.73v-3a.72.72,0,0,1,.72-.72H6a.22.22,0,0,0,0-.44H5.45a1.16,1.16,0,0,0-1.16,1.16v3H3.2a.06.06,0,0,1-.06-.05V11.55A3.46,3.46,0,0,1,5.35,8.34L7.24,9A1.15,1.15,0,0,0,7.61,9,1.21,1.21,0,0,0,8,9l1.88-.62a3.44,3.44,0,0,1,2.21,3.21V13a.22.22,0,1,0,.44,0v-1.4a3.91,3.91,0,0,0-2.13-3.47Zm1.12-2.29a.65.65,0,0,1-.65.65h0v-1h.33a.36.36,0,0,1,.36.36ZM7.5.43h.16a2.64,2.64,0,0,1,1.88.79,3.11,3.11,0,0,0-.44-.08,13.6,13.6,0,0,0-3,0,2.14,2.14,0,0,0-.44.08A2.67,2.67,0,0,1,7.5.43ZM4.15,2.89a2.68,2.68,0,0,1,2-1.3,13.6,13.6,0,0,1,2.78,0,3.5,3.5,0,0,0-2.06,1.2l-.51.08A2.44,2.44,0,0,0,4.42,5H4.07L3.86,5A2.63,2.63,0,0,1,4.15,2.89Zm.21,3.55a.65.65,0,0,1-.65-.65.36.36,0,0,1,.36-.36H4.4v1Zm3.49,2.1a.79.79,0,0,1-.48,0l-2-.66a.75.75,0,0,1-.52-.72V5.25a2,2,0,0,1,1.61-2,6,6,0,0,1,2.32,0,2,2,0,0,1,1.61,2V7.16a.75.75,0,0,1-.52.72Z"/><path d="M6.43,5.53a.22.22,0,0,0-.22.22v.31a.22.22,0,0,0,.22.22.21.21,0,0,0,.22-.22V5.75A.22.22,0,0,0,6.43,5.53Z"/><path d="M8.79,5.53a.22.22,0,0,0-.22.22v.31a.22.22,0,1,0,.44,0V5.75A.22.22,0,0,0,8.79,5.53Z"/><path d="M8.15,7.1a1.33,1.33,0,0,1-1.07,0,.22.22,0,1,0-.17.4,1.76,1.76,0,0,0,.7.15,1.81,1.81,0,0,0,.71-.15.22.22,0,0,0,.11-.29.21.21,0,0,0-.28-.11Z"/><path d="M6.65,12.63a.22.22,0,0,0-.22-.22.22.22,0,0,0-.22.22s0,.06,0,.12a.55.55,0,0,0-.15.39.59.59,0,0,0,.15.39.12.12,0,0,1,0,.11s0,.06,0,.12a.57.57,0,0,0-.15.39.22.22,0,1,0,.44,0c0-.05,0-.06,0-.11a.6.6,0,0,0,.15-.4.59.59,0,0,0-.15-.39c0-.05,0-.06,0-.11s0-.06,0-.12A.55.55,0,0,0,6.65,12.63Z"/><path d="M1.89,11.87a.22.22,0,0,0-.44,0c0,.05,0,.06-.05.12a.55.55,0,0,0-.15.39.59.59,0,0,0,.15.39c0,.05.05.07.05.11s0,.06-.05.12a.57.57,0,0,0-.15.39.22.22,0,0,0,.44,0c0-.05,0-.06.05-.11a.6.6,0,0,0,.15-.4.59.59,0,0,0-.15-.39c0-.05-.05-.06-.05-.11s0-.06.05-.12A.55.55,0,0,0,1.89,11.87Z"/><path d="M14,11.33a.22.22,0,0,0-.22-.22.22.22,0,0,0-.22.22c0,.05,0,.06-.06.12a.55.55,0,0,0-.15.39.59.59,0,0,0,.15.39s.06.07.06.11,0,.06-.06.12a.57.57,0,0,0-.15.39.22.22,0,1,0,.44,0s0-.06.05-.11a.6.6,0,0,0,.16-.4.59.59,0,0,0-.16-.39s-.05-.07-.05-.11,0-.06.05-.12A.55.55,0,0,0,14,11.33Z"/><path d="M1.89,5.44a.22.22,0,1,0-.44,0,.52.52,0,0,1-.15.37.93.93,0,0,0,0,1.29.52.52,0,0,1,.15.37.54.54,0,0,1-.15.37A.89.89,0,0,0,1,8.48a.22.22,0,0,0,.44,0,.55.55,0,0,1,.16-.37.93.93,0,0,0,.25-.64,1,1,0,0,0-.25-.65.5.5,0,0,1-.16-.36.51.51,0,0,1,.16-.37,1,1,0,0,0,.25-.65Z"/><path d="M13.77,6.46a.47.47,0,0,1,.16-.37,1,1,0,0,0,.25-.65.22.22,0,1,0-.44,0,.49.49,0,0,1-.16.37,1,1,0,0,0,0,1.29.49.49,0,0,1,.16.37.51.51,0,0,1-.16.37.93.93,0,0,0-.25.64.22.22,0,1,0,.44,0,.51.51,0,0,1,.16-.37.93.93,0,0,0,.25-.64,1,1,0,0,0-.25-.65.47.47,0,0,1-.16-.36Z"/></svg>