<svg id="Layer_1" data-name="Layer 1" xmlns="http://www.w3.org/2000/svg" viewBox="0 0 15 15"><path d="M14.14,7V4.29A1.19,1.19,0,0,0,13,3.1H9.61A1.19,1.19,0,0,0,8.42,4.29V7a1.21,1.21,0,0,0-.72,1.1v2.38a.24.24,0,0,0,.24.24h.24v.71a.24.24,0,0,0,.24.24H9.85a.24.24,0,0,0,.24-.24v-.71h2.38v.71a.24.24,0,0,0,.24.24h1.43a.24.24,0,0,0,.24-.24v-.71h.24a.23.23,0,0,0,.23-.24V8.11A1.2,1.2,0,0,0,14.14,7ZM8.9,4.29a.71.71,0,0,1,.71-.71H13a.71.71,0,0,1,.71.71V6.91h-.47V6.67A1.2,1.2,0,0,0,12,5.48H10.56A1.2,1.2,0,0,0,9.37,6.67v.24H8.9Zm3.81,2.38v.24H9.85V6.67A.71.71,0,0,1,10.56,6H12A.71.71,0,0,1,12.71,6.67ZM9.61,11.2H8.66v-.47h.95Zm4.29,0H13v-.47h1Zm.48-.95H8.18V9.77h6.2Zm0-.95H8.18V8.82h6.2Zm0-1H8.18V8.11a.71.71,0,0,1,.71-.72h4.77a.71.71,0,0,1,.72.71h0Z"/><path d="M11,4.53h.48a.24.24,0,0,0,0-.48H11a.24.24,0,1,0,0,.48Z"/><path d="M.55,10.73v.71a.24.24,0,0,0,.24.24H2.22a.24.24,0,0,0,.24-.24v-.71H4.84v.71a.24.24,0,0,0,.24.24H6.51a.24.24,0,0,0,.24-.24v-.71H7a.24.24,0,0,0,.24-.24V8.11A1.19,1.19,0,0,0,6.51,7V4.29A1.19,1.19,0,0,0,5.32,3.1H2A1.19,1.19,0,0,0,.79,4.29V7a1.2,1.2,0,0,0-.71,1.1v2.38a.24.24,0,0,0,.24.24ZM2,11.2H1v-.47H2Zm4.29,0H5.32v-.47h.95Zm-5-6.91A.71.71,0,0,1,2,3.58H5.32A.71.71,0,0,1,6,4.29V6.91H5.56V6.67A1.19,1.19,0,0,0,4.37,5.48H2.94A1.19,1.19,0,0,0,1.75,6.67v.24H1.27ZM5.08,6.67v.24H2.22V6.67A.71.71,0,0,1,2.94,6H4.37A.71.71,0,0,1,5.08,6.67ZM.55,8.11a.72.72,0,0,1,.72-.72H6a.71.71,0,0,1,.71.71h0v.23H.55Zm0,.71h6.2V9.3H.55Zm0,.95h6.2v.48H.55Z"/><path d="M3.41,4.53h.48a.24.24,0,0,0,0-.48H3.41a.24.24,0,0,0,0,.48Z"/></svg>