<svg id="Layer_1" data-name="Layer 1" xmlns="http://www.w3.org/2000/svg" viewBox="0 0 15 15"><path d="M4.59,14.06H1.78a.7.7,0,0,1-.7-.7H4.83v-.47H1.08V10.08h4V9.61h-4a.63.63,0,0,1,.18-.34l.39-.39A1.18,1.18,0,0,0,2,8.05V8H4.36v.08a1.17,1.17,0,0,0,.34.83l.39.39a.74.74,0,0,1,.2.38l.46-.08a1.17,1.17,0,0,0-.33-.64L5,8.55a.72.72,0,0,1-.2-.5V8A.81.81,0,0,0,5.52,7a.82.82,0,0,0-.81-.7h-3A.82.82,0,0,0,1.55,8v.09a.73.73,0,0,1-.21.5L1,8.93a1.17,1.17,0,0,0-.34.83v3.6a1.17,1.17,0,0,0,1.17,1.17H4.59a1.18,1.18,0,0,0,1-.58l-.41-.24A.69.69,0,0,1,4.59,14.06ZM1.31,7.15a.35.35,0,0,1,.35-.35H4.71a.34.34,0,0,1,.35.35.35.35,0,0,1-.35.35h-3A.35.35,0,0,1,1.31,7.15Z"/><path d="M3.19,10.78a2.45,2.45,0,0,1,.85.15l.17-.43a2.75,2.75,0,0,0-1-.19c-1,0-1.88.52-1.88,1.17s.83,1.18,1.88,1.18a2.75,2.75,0,0,0,1-.19L4,12a2.45,2.45,0,0,1-.85.15c-.83,0-1.41-.37-1.41-.71S2.36,10.78,3.19,10.78Z"/><path d="M4.33,4.69H6.26A7,7,0,0,0,7,7.14a5.87,5.87,0,0,1,.37.9l.45-.14a6.37,6.37,0,0,0-.4-1A6.55,6.55,0,0,1,6.7,4.05V1.17A.7.7,0,0,0,6,.47H4.59a.7.7,0,0,0-.7.7V4.05A6.48,6.48,0,0,1,3.65,5.8l.45.12A7.21,7.21,0,0,0,4.33,4.69Zm0-.47V3.28H6.23v.77c0,.06,0,.11,0,.17Zm0-1.41V2.34H6.23v.47ZM4.59.94H6a.23.23,0,0,1,.23.23v.71H4.36V1.64H5.77V1.17H4.36A.23.23,0,0,1,4.59.94Z"/><path d="M14.67,12.77a.8.8,0,0,0-.39-.69.82.82,0,0,0-.19-1.15.88.88,0,0,0-.4-.15l-.11-.55a15.91,15.91,0,0,1-.31-3,.71.71,0,0,0,.42-.9.69.69,0,0,0-.42-.43V5.58a.7.7,0,0,0,0-1.32v-.4a1.25,1.25,0,0,0,0-2.24,2.06,2.06,0,0,0-.76-.21A.7.7,0,1,0,11.2.93a.66.66,0,0,0,0,.48,2,2,0,0,0-.76.21,1.24,1.24,0,0,0-.56,1.67,1.26,1.26,0,0,0,.57.57v.4a.7.7,0,0,0,0,1.32V5.9a.7.7,0,0,0,0,1.32,16.67,16.67,0,0,1-.16,2.12l.46.07a17.14,17.14,0,0,0,.17-2.14H12.8a16.64,16.64,0,0,0,.32,3.06l.09.45H12.09v.47h1.53a.35.35,0,0,1,.35.35.35.35,0,0,1-.35.35H11.86v.47h2a.36.36,0,0,1,0,.71H11.16v.46H13.5v.47H10.69v.47h3A.23.23,0,0,0,14,14.3v-.71A.83.83,0,0,0,14.67,12.77ZM12.8,5.63v.23H10.92V5.63ZM11.86.94a.23.23,0,0,1,.23.23.23.23,0,0,1-.23.24.24.24,0,0,1-.24-.24A.24.24,0,0,1,11.86.94Zm-1.64,1.8a.76.76,0,0,1,.43-.7,1.52,1.52,0,0,1,.69-.16h1a1.52,1.52,0,0,1,.69.16.78.78,0,0,1-.35,1.48H11A.78.78,0,0,1,10.22,2.74ZM11,4h1.8v.24H10.92V4Zm-.31.71H13a.23.23,0,0,1,.24.23.24.24,0,0,1-.24.24H10.69a.24.24,0,0,1-.24-.24A.23.23,0,0,1,10.69,4.69Zm0,1.64H13a.23.23,0,0,1,.24.23A.24.24,0,0,1,13,6.8H10.69a.24.24,0,0,1-.24-.24A.23.23,0,0,1,10.69,6.33Z"/><path d="M11.39,10.31h-.61L9.6,9.13a2.11,2.11,0,0,0-3,0L5.43,10.31h-.6a.24.24,0,0,0-.24.24v.7a2.44,2.44,0,0,0,.89,1.83,2.73,2.73,0,0,0,.52.37v.85a.23.23,0,0,0,.23.23H10a.23.23,0,0,0,.24-.23v-.85a2.73,2.73,0,0,0,.52-.37,2.43,2.43,0,0,0,.88-1.83v-.7A.23.23,0,0,0,11.39,10.31ZM7,9.46a1.64,1.64,0,0,1,2.32,0l.85.85h-4Zm2.8,4.6H6.47v-.4a2.74,2.74,0,0,0,.94.17h1.4a2.74,2.74,0,0,0,.94-.17Zm1.41-2.81a2,2,0,0,1-.73,1.48,2.48,2.48,0,0,1-1.62.63H7.41a2.48,2.48,0,0,1-1.62-.63,2,2,0,0,1-.73-1.48v-.47h6.1Z"/></svg>