<svg id="Layer_1" data-name="Layer 1" xmlns="http://www.w3.org/2000/svg" viewBox="0 0 15 15"><path d="M14.64,10.33a.22.22,0,0,0,.22-.22V9.7a.75.75,0,0,0-.72-.77h-.35V8.49a.56.56,0,0,0-.56-.56H11.5a.56.56,0,0,0-.56.56V9.64a23.4,23.4,0,0,0-5,0V8.49a.56.56,0,0,0-.56-.56H5.23A22.94,22.94,0,0,0,8.75,5.29l.68.93a.55.55,0,0,0,.78.12l1.4-1h0a.56.56,0,0,0,.12-.78l-.26-.36L11.75,4a.73.73,0,0,0,.13-1L10.72,1.34a.74.74,0,0,0-1-.19l-.28.2L9.15,1A.56.56,0,0,0,8.37.87L7,1.89a.56.56,0,0,0-.13.78l.68.93A23,23,0,0,0,3.46,6.55L3,5.87a.85.85,0,0,0-1.2-.19l-.91.66A.87.87,0,0,0,.66,7.55l.08.11-.28.2a.74.74,0,0,0-.13,1L1.5,10.5a.74.74,0,0,0,.51.32v.86a.74.74,0,0,0,.72.76h.34v.44a.56.56,0,0,0,.56.56H5.36a.56.56,0,0,0,.56-.56V11.73a17.71,17.71,0,0,0,2,.13h0a.22.22,0,0,0,.22-.21.24.24,0,0,0-.21-.22c-.72,0-1.41-.06-2-.13V10.07a23.4,23.4,0,0,1,5,0V11.3c-.61.07-1.3.12-2,.13a.23.23,0,0,0-.21.22.22.22,0,0,0,.21.22h0a17.69,17.69,0,0,0,2-.13v1.15a.56.56,0,0,0,.56.56h1.73a.56.56,0,0,0,.56-.56v-.44h.35a.75.75,0,0,0,.72-.76v-.57a.22.22,0,0,0-.22-.21.21.21,0,0,0-.21.21v.57a.32.32,0,0,1-.29.33h-.35V9.36h.35a.32.32,0,0,1,.29.34v.41A.21.21,0,0,0,14.64,10.33ZM9.94,1.49a.32.32,0,0,1,.43.11l1.17,1.6a.32.32,0,0,1,0,.44l-.28.2L9.66,1.7Zm-2.75.93a.13.13,0,0,1,0-.18l1.4-1a.13.13,0,0,1,.18,0c.09.12,2.09,2.88,2.2,3h0l.38.53a.13.13,0,0,1,0,.18L10,6a.14.14,0,0,1-.19,0ZM7.77,4l.73,1a23.09,23.09,0,0,1-4.06,3l-.73-1A23.56,23.56,0,0,1,7.77,4ZM2,9.7v.68a.52.52,0,0,1-.17-.13L.68,8.65a.32.32,0,0,1,0-.44L1,8,2.05,9.45A.73.73,0,0,0,2,9.7ZM3.07,12H2.73a.31.31,0,0,1-.29-.33v-2a.4.4,0,0,1,.07-.21.28.28,0,0,1,.22-.12h.34V12Zm0-3.52v.44h-.4a.64.64,0,0,0-.36.14L1,7.29a.43.43,0,0,1,.09-.6L2,6a.44.44,0,0,1,.61.09c.15.22,1.15,1.58,1.31,1.81h-.3A.56.56,0,0,0,3.07,8.49Zm2.42,4.39a.13.13,0,0,1-.13.13H3.63a.13.13,0,0,1-.13-.13V8.49a.13.13,0,0,1,.13-.13H5.36a.13.13,0,0,1,.13.13Zm7.87,0a.13.13,0,0,1-.13.13H11.5a.13.13,0,0,1-.13-.13V8.49a.13.13,0,0,1,.13-.13h1.73a.13.13,0,0,1,.13.13Z"/></svg>