<svg id="Layer_1" data-name="Layer 1" xmlns="http://www.w3.org/2000/svg" viewBox="0 0 15 15"><path d="M14.91,8l-.66-2A6.3,6.3,0,0,0,9.7,1.78L8.24,1.45l-4-.88A.22.22,0,0,0,4.12,1l4,.88h0a2.17,2.17,0,0,1,1.7,1.89,23.11,23.11,0,0,0,.73,3.78A11.5,11.5,0,0,1,11,11.82a9,9,0,0,1-.31,1.51H7.7a.22.22,0,1,0,0,.44h3l.46.78a.08.08,0,0,1,0,.08s0,0-.06,0H1.71a.09.09,0,0,1-.06,0,.08.08,0,0,1,0-.08l.47-.78h4.7a.22.22,0,0,0,0-.44H2.15a9.12,9.12,0,0,1-.42-3.28,14.13,14.13,0,0,1,.53-2.77A15.62,15.62,0,0,0,2.9,3.41,6.3,6.3,0,0,0,2,.67.08.08,0,0,1,2.06.55l1.2.26A.22.22,0,1,0,3.35.38L2.15.12a.53.53,0,0,0-.57.77A5.88,5.88,0,0,1,2.46,3.4a15,15,0,0,1-.63,3.77,10.16,10.16,0,0,0-.08,6.35l-.48.81a.52.52,0,0,0,.44.77h9.36a.5.5,0,0,0,.45-.26.49.49,0,0,0,0-.51l-.47-.8a9.2,9.2,0,0,0,.34-1.64A11.87,11.87,0,0,0,11,7.43a22,22,0,0,1-.69-3.37,3.41,3.41,0,0,1,2,2c.09.27.51.11.41-.15a3.78,3.78,0,0,0-2.52-2.33,2.54,2.54,0,0,0-.67-1.37h0a5.84,5.84,0,0,1,4.23,3.88l.66,2a.43.43,0,0,1-.06.38.4.4,0,0,1-.33.17.41.41,0,0,1-.39-.27l-.66-1.76a.22.22,0,1,0-.41.15l.65,1.76A.86.86,0,0,0,14.91,8Z"/><path d="M7.52,11a1,1,0,0,0,1-1V5.13a1,1,0,0,0-1.93,0V10A1,1,0,0,0,7.52,11Zm0-6.4a.52.52,0,0,1,.53.52V10a.53.53,0,0,1-.53.53A.52.52,0,0,1,7,10V9.81h.36a.22.22,0,0,0,0-.44H7v-.8h.36a.22.22,0,0,0,.22-.22.22.22,0,0,0-.22-.22H7v-.8h.36a.22.22,0,1,0,0-.43H7V6.1h.36a.22.22,0,0,0,.22-.22.22.22,0,0,0-.22-.22H7V5.13A.52.52,0,0,1,7.52,4.61Z"/></svg>