<svg id="Layer_1" data-name="Layer 1" xmlns="http://www.w3.org/2000/svg" viewBox="0 0 15 15"><g id="outline"><path d="M13.24,5.35h-2V3.91A.94.94,0,0,0,12,3V2.77A.94.94,0,0,0,11,1.83h-8a.94.94,0,0,0-.94.94V3a.94.94,0,0,0,.7.91V5.35H1.29A1.06,1.06,0,0,0,.23,6.4v6.68a.24.24,0,0,0,.24.24V14a.23.23,0,0,0,.23.23H13.83a.23.23,0,0,0,.23-.23v-.7a.23.23,0,0,0,.24-.23V6.4A1.06,1.06,0,0,0,13.24,5.35Zm.59,1.05v6.45H10.55v-7h2.69A.58.58,0,0,1,13.83,6.4ZM11.48,2.77V3a.47.47,0,0,1-.46.47.24.24,0,0,0-.24.24V5.35H9.84V3.91A.94.94,0,0,0,10.55,3V2.77a1,1,0,0,0-.13-.47H11A.47.47,0,0,1,11.48,2.77Zm-8.43.7A.47.47,0,0,1,2.58,3V2.77a.47.47,0,0,1,.47-.47H9.61a.47.47,0,0,1,.47.47V3a.47.47,0,0,1-.47.47.24.24,0,0,0-.24.24V5.35H7.45l1-1.52a.23.23,0,0,0-.07-.32A.24.24,0,0,0,8,3.58L6.9,5.35H6.05L7,3.83a.24.24,0,0,0-.08-.32.23.23,0,0,0-.32.07L5.5,5.35H4.64l1-1.52a.24.24,0,0,0-.4-.25L4.09,5.35H3.28V3.71A.23.23,0,0,0,3.05,3.47ZM.7,6.4a.59.59,0,0,1,.59-.58h8.79v7H.7Zm.24,6.92h9.14v.46H.94Zm12.65.46h-3v-.46h3Z"/><path d="M12.19,10.5a.94.94,0,1,0,.93.94A.94.94,0,0,0,12.19,10.5Zm0,1.41a.47.47,0,1,1,.47-.47A.47.47,0,0,1,12.19,11.91Z"/><path d="M11,7.46a.23.23,0,0,0,.23.23H12V9.8a.23.23,0,0,0,.24.23.23.23,0,0,0,.23-.23V7.69h.7a.23.23,0,0,0,.24-.23V6.52a.24.24,0,0,0-.24-.24H11.25a.23.23,0,0,0-.23.24Zm.46-.71h1.41v.47H11.48Z"/><circle cx="7.5" cy="12.14" r="0.23"/><circle cx="8.44" cy="12.14" r="0.23"/><circle cx="9.37" cy="12.14" r="0.23"/><path d="M1.41,7a.23.23,0,0,0-.24.23v.24a.23.23,0,0,0,.24.23.23.23,0,0,0,.23-.23V7.22A.23.23,0,0,0,1.41,7Z"/><path d="M1.41,7.92a.24.24,0,0,0-.24.24V9.57a.24.24,0,0,0,.24.23.23.23,0,0,0,.23-.23V8.16A.23.23,0,0,0,1.41,7.92Z"/><path d="M12.89,2.3a.23.23,0,0,0-.23-.23.23.23,0,0,0-.24.23v.23a.24.24,0,0,0,.24.24.23.23,0,0,0,.23-.24Z"/><path d="M12.66,3.24a.23.23,0,0,0-.24.23v.7a.24.24,0,0,0,.24.24.23.23,0,0,0,.23-.24v-.7A.23.23,0,0,0,12.66,3.24Z"/></g></svg>