<svg id="Layer_1" data-name="Layer 1" xmlns="http://www.w3.org/2000/svg" viewBox="0 0 15 15"><path d="M14.77,4.63a.22.22,0,1,0,0-.43h-.49V3.93h.49a.22.22,0,1,0,0-.44H.23a.22.22,0,0,0,0,.44H.72V4.2H.23a.22.22,0,1,0,0,.43H.72V4.9H.23a.22.22,0,0,0,0,.44H.72V5.6H.23A.22.22,0,0,0,.23,6H.72V6.3H.23A.22.22,0,0,0,0,6.52a.22.22,0,0,0,.22.22H.72V7H.23a.22.22,0,0,0,0,.44H.72v.26H.23a.22.22,0,1,0,0,.44H.72v.26H.23a.22.22,0,0,0,0,.44H.72v.27H.23a.22.22,0,1,0,0,.44H.72v.26H.23a.22.22,0,1,0,0,.44H.72v.26H.23a.22.22,0,0,0,0,.44H.72v.27H.23a.22.22,0,0,0-.22.22.22.22,0,0,0,.22.22H.72v.26H.23a.22.22,0,0,0,0,.44H.72v.26H.23a.22.22,0,0,0,0,.44H14.77a.22.22,0,1,0,0-.44h-.49v-.26h.49a.22.22,0,0,0,0-.44h-.49v-.26h.49a.22.22,0,0,0,.22-.22.22.22,0,0,0-.22-.22h-.49V11h.49a.22.22,0,0,0,0-.44h-.49v-.26h.49a.22.22,0,1,0,0-.44h-.49V9.56h.49a.22.22,0,0,0,0-.44h-.49V8.85h.49a.22.22,0,0,0,0-.44h-.49V8.15h.49a.22.22,0,1,0,0-.44h-.49V7.45h.49a.22.22,0,1,0,0-.44h-.49V6.74h.49A.22.22,0,0,0,15,6.52a.22.22,0,0,0-.22-.22h-.49V6h.49a.22.22,0,1,0,0-.44h-.49V5.34h.49a.22.22,0,1,0,0-.44h-.49V4.63Zm-.93,8h-1V3.93h1ZM3.27,3.93h1v8.7h-1Zm-.44,8.7H2.56V3.93h.27Zm1.84-8.7h1v8.7h-1Zm1.41,0h.26v8.7H6.08Zm.7,0H8.22v8.7H6.78Zm1.88,0h.26v8.7H8.66Zm.7,0h1v8.7h-1Zm1.41,0h1v8.7h-1Zm1.4,0h.27v8.7h-.27Zm-11,0h1v8.7h-1Z"/></svg>