<svg id="Layer_1" data-name="Layer 1" xmlns="http://www.w3.org/2000/svg" viewBox="0 0 15 15"><path d="M14.19,13.43h-1V4.21h1A.24.24,0,0,0,14.43,4,3.64,3.64,0,0,0,10.79.33H4.48A3.64,3.64,0,0,0,.85,4a.24.24,0,0,0,.24.24h1v1H.6a.24.24,0,0,0-.24.24v1a.25.25,0,0,0,.24.25H2.06v6.79h-1a.24.24,0,0,0-.24.24,1.21,1.21,0,0,0,1.21,1.21H13.22a1.21,1.21,0,0,0,1.21-1.21A.24.24,0,0,0,14.19,13.43ZM1.34,3.72A3.17,3.17,0,0,1,4.48.81h6.31a3.15,3.15,0,0,1,3.14,2.91ZM10.53,12h.75a1.21,1.21,0,1,0,0-2.42h-.73V9.3a.24.24,0,0,0-.24-.24H5a.24.24,0,0,0-.24.24v2.43a2.2,2.2,0,0,0,.81,1.7h-3V6.64H4a.25.25,0,0,0,.24-.25V6.15H5.72A1.71,1.71,0,0,0,7.39,7.61h.49a1.71,1.71,0,0,0,1.7-1.7V4.21h3.15v9.22h-3A2.17,2.17,0,0,0,10.53,12ZM8.36,13.43H6.91a1.7,1.7,0,0,1-1.7-1.7V9.55h4.85v2.18A1.7,1.7,0,0,1,8.36,13.43Zm2.19-1.94V10h.73a.73.73,0,0,1,0,1.46ZM4,5.18H2.54v-1H5.7V5.66H4.24V5.42A.24.24,0,0,0,4,5.18Zm2.18.73V4.21H9.09v1.7A1.21,1.21,0,0,1,7.88,7.12H7.39A1.21,1.21,0,0,1,6.18,5.91ZM.85,6.15V5.66H3.76v.49ZM13.22,14.4H2.06a.74.74,0,0,1-.69-.49H13.9A.73.73,0,0,1,13.22,14.4Z"/><path d="M6.18,11.73H5.7a1.21,1.21,0,0,0,1.21,1.21v-.48A.73.73,0,0,1,6.18,11.73Z"/><path d="M8.12,1.54h-1a.24.24,0,0,0-.24.24v1A.25.25,0,0,0,7.15,3h1a.24.24,0,0,0,.24-.25v-1A.24.24,0,0,0,8.12,1.54Zm-.24,1H7.39V2h.49Z"/><path d="M5.21,1.54h-1A.24.24,0,0,0,4,1.78v1A.25.25,0,0,0,4.24,3h1a.24.24,0,0,0,.24-.25v-1A.24.24,0,0,0,5.21,1.54ZM5,2.51H4.48V2H5Z"/><path d="M11,1.54h-1a.24.24,0,0,0-.24.24v1a.25.25,0,0,0,.24.25h1a.25.25,0,0,0,.25-.25v-1A.25.25,0,0,0,11,1.54Zm-.24,1h-.48V2h.48Z"/></svg>