<svg id="Layer_1" data-name="Layer 1" xmlns="http://www.w3.org/2000/svg" viewBox="0 0 15 15"><path d="M7.18,13.78a.16.16,0,0,1-.12,0l-6-4.44A.21.21,0,0,1,1,9.13.21.21,0,0,1,1.06,9l.71-.48A.2.2,0,1,1,2,8.82l-.48.32,5.66,4.2,5.66-4.2-.47-.33a.2.2,0,0,1,.23-.33l.69.49a.22.22,0,0,1,.09.16.21.21,0,0,1-.08.17l-6,4.44A.19.19,0,0,1,7.18,13.78Z"/><path d="M7.18,12.78a.21.21,0,0,1-.12,0l-6-4.45A.21.21,0,0,1,1,8.13.21.21,0,0,1,1.06,8l.66-.44A.2.2,0,0,1,2,7.57a.21.21,0,0,1-.06.28l-.42.29,5.66,4.19,5.66-4.2-.41-.28a.2.2,0,0,1,.24-.33l.62.45a.19.19,0,0,1,.09.16.21.21,0,0,1-.08.16l-6,4.45A.28.28,0,0,1,7.18,12.78Z"/><path d="M11,5.77a.19.19,0,0,1-.12,0l-2-1.43A.2.2,0,1,1,9.11,4l2,1.44a.18.18,0,0,1,0,.27A.19.19,0,0,1,11,5.77Z"/><path d="M5.13,10.26a.28.28,0,0,1-.12,0l-2-1.46a.21.21,0,0,1,0-.28.2.2,0,0,1,.28,0l2,1.46a.2.2,0,0,1-.12.36Z"/><path d="M6,6.63h0L3.23,5.87a.2.2,0,0,1-.06-.35l4-2.76a.21.21,0,0,1,.23,0L9.11,4a.21.21,0,0,1,.08.16.16.16,0,0,1-.07.16l-3,2.3A.2.2,0,0,1,6,6.63Zm-2.24-1L6,6.21,8.66,4.14l-1.36-1Z"/><path d="M3.16,8.8a.21.21,0,0,1-.11,0l-2-1.48A.21.21,0,0,1,1,7.12.18.18,0,0,1,1.06,7L3.17,5.52a.2.2,0,0,1,.28.05.21.21,0,0,1-.05.28L1.52,7.13,3.16,8.35,5.87,6.27a.2.2,0,0,1,.25.32L3.29,8.76A.28.28,0,0,1,3.16,8.8Z"/><path d="M7.18,11.77a.16.16,0,0,1-.12,0L5,10.22a.21.21,0,0,1-.08-.16A.19.19,0,0,1,5,9.9L7.86,7.72a.21.21,0,0,1,.19,0,.2.2,0,0,1,.12.15l.49,2.74a.19.19,0,0,1-.08.2l-1.28,1A.19.19,0,0,1,7.18,11.77ZM5.47,10.05l1.71,1.27,1.07-.79L7.84,8.24Z"/><path d="M8.47,10.81a.16.16,0,0,1-.16-.08.2.2,0,0,1,0-.28l4.49-3.32L11,5.82,8.1,8a.2.2,0,1,1-.24-.32l3-2.31a.2.2,0,0,1,.24,0L13.29,7a.22.22,0,0,1,.09.16.19.19,0,0,1-.08.16l-4.72,3.5A.2.2,0,0,1,8.47,10.81Z"/><path d="M6.14,2.76a.24.24,0,0,1-.14,0l-.64-.64a.21.21,0,0,1,0-.28.21.21,0,0,1,.29,0l.63.63a.21.21,0,0,1,0,.29A.24.24,0,0,1,6.14,2.76Z"/><path d="M8.47,2.76a.22.22,0,0,1-.14,0,.21.21,0,0,1,0-.29L9,1.79a.2.2,0,1,1,.28.28l-.63.64A.24.24,0,0,1,8.47,2.76Z"/><path d="M7.13,2.47a.2.2,0,0,1-.2-.2v-.8a.2.2,0,0,1,.4,0v.8A.2.2,0,0,1,7.13,2.47Z"/></svg>