<svg id="Layer_1" data-name="Layer 1" xmlns="http://www.w3.org/2000/svg" viewBox="0 0 15 15"><path d="M14.75,7.34H14.5V6.67a.82.82,0,0,0-.81-.81h-.08V2.19A1.38,1.38,0,0,0,12.21,1H10.69a.22.22,0,0,0,0,.44h1.52a1,1,0,0,1,1,1V5.86h-.36V3.71A.81.81,0,0,0,12,2.9H8.45a.81.81,0,0,0-.81.81V5.86H7.31V3.71a.82.82,0,0,0-.82-.81H2.94a.82.82,0,0,0-.81.81V5.86H1.77V2.41a1,1,0,0,1,1-1H9.66a.22.22,0,0,0,0-.44H2.74a1.41,1.41,0,0,0-1.41,1.4V5.86H1.26a.82.82,0,0,0-.82.81v.67H.19A.22.22,0,0,0,0,7.56v5.63a.21.21,0,0,0,.22.21H1.64a.21.21,0,0,0,.21-.16l.28-1h7a.22.22,0,0,0,0-.44H.41v-4H2.85a.22.22,0,0,0,0-.44h-2V6.67a.38.38,0,0,1,.38-.37H13.69a.38.38,0,0,1,.37.37v.67H3.87a.22.22,0,1,0,0,.44H14.53v4H10.19a.22.22,0,1,0,0,.44H12.8l.26,1a.21.21,0,0,0,.21.16h1.48a.21.21,0,0,0,.22-.21V7.56a.22.22,0,0,0-.22-.22ZM1.68,12.22,1.47,13H.41v-.75ZM8.07,3.71a.38.38,0,0,1,.38-.37H12a.38.38,0,0,1,.37.37V5.86H8.07Zm-5.5,0a.38.38,0,0,1,.37-.37H6.49a.38.38,0,0,1,.38.37V5.86H2.57ZM13.44,13l-.18-.75h1.27V13Z"/><path d="M14.08,11.11V8.45a.22.22,0,0,0-.22-.22H1.08a.22.22,0,0,0-.22.22v2.66a.22.22,0,0,0,.22.22H13.86a.22.22,0,0,0,.22-.22Zm-.44-.22H1.3V8.67H13.64v2.22Z"/></svg>