<svg id="Layer_1" data-name="Layer 1" xmlns="http://www.w3.org/2000/svg" viewBox="0 0 15 15"><path d="M14.37,0H.55V13.2H2V15H4.67V13.2h5.58V15H12.9V13.2h1.47ZM3.78,14.08H2.9V13.2h.88Zm8.24,0h-.88V13.2H12ZM1.43,12.31V.84H13.49V4.37h-.88V1.72H2.31v9.71h10.3V8.78h.88v3.53ZM12.61,5.25h.88V7.9h-.88ZM9.3,8.64h.15a.55.55,0,0,1,.51.58v1.33H8.78V9.22a.56.56,0,0,1,.52-.58Zm.51-.83V7H8.93v.79a1.46,1.46,0,0,0-1,1.41v1.33H7V9.22A1.46,1.46,0,0,0,6,7.81V7H5.11v.79a1.46,1.46,0,0,0-1,1.41v1.33H3.2V6.14h8.53v4.41h-.89V9.22A1.45,1.45,0,0,0,9.81,7.81Zm-4.33.83h.14a.55.55,0,0,1,.52.58v1.33H5V9.22a.55.55,0,0,1,.52-.58Zm6.25-3.39h-.89V3.93H10V5.25h-1V3.93H8.05V5.25H6.87V3.93H6V5.25H5V3.93H4.08V5.25H3.2V2.61h8.53Z"/></svg>