<svg id="Layer_1" data-name="Layer 1" xmlns="http://www.w3.org/2000/svg" viewBox="0 0 15 15"><path d="M10.08,5.51h1.4a.7.7,0,0,0,.71-.7V4.58a1.41,1.41,0,0,0-2.82,0v.23A.71.71,0,0,0,10.08,5.51Zm-.24-.93a.94.94,0,1,1,1.88,0v.23a.24.24,0,0,1-.24.24h-1.4a.24.24,0,0,1-.24-.24Z"/><path d="M13.12,10.71V7.86A1,1,0,0,0,13,7.4a.76.76,0,0,1-.09-.25A.81.81,0,0,1,13,6.91a1,1,0,0,0,.14-.46A1,1,0,0,0,13,6a1,1,0,0,1-.09-.25A.81.81,0,0,1,13,5.51a1,1,0,0,0,.14-.46V4.58a2.34,2.34,0,0,0-1.4-2.15V.8a.24.24,0,0,0-.16-.22L11,.39a.82.82,0,0,0-.44,0L10,.58A.24.24,0,0,0,9.84.8V2.43a2.34,2.34,0,0,0-1.4,2.15v.47a1,1,0,0,0,.14.46.6.6,0,0,1,.09.24A1,1,0,0,1,8.58,6a1,1,0,0,0-.14.45,1,1,0,0,0,.14.46.6.6,0,0,1,.09.24.76.76,0,0,1-.09.25,1,1,0,0,0-.14.46v2.81H7.73V5.75a1.16,1.16,0,0,0-.47-.94h0V3.4A.24.24,0,0,0,7,3.17H6.8V2.23H7A.94.94,0,1,0,7,.36H2.58a.23.23,0,0,0-.24.23h-.7a.23.23,0,0,0-.23.24v.93A.23.23,0,0,0,1.64,2h.7a.23.23,0,0,0,.24.23h.23v.71a.23.23,0,0,1-.23.23.71.71,0,0,0,0,1.41A1.65,1.65,0,0,0,4.22,2.94V2.23h.7v.94H4.69a.24.24,0,0,0-.24.23V4.81h0A1.19,1.19,0,0,0,4,5.75V6a.7.7,0,0,1-.7.71H2.81A1.17,1.17,0,0,0,1.64,7.86v5.39a1.17,1.17,0,0,0,1.17,1.17H13.12a.23.23,0,0,0,.24-.23V12.55a.23.23,0,0,0,.23-.24v-.94A.7.7,0,0,0,13.12,10.71ZM1.88,1.53V1.06h.46v.47ZM4.45,13H3.28a.23.23,0,0,1-.23-.23V8.33a.23.23,0,0,1,.23-.24H5.16a.7.7,0,0,0,.7-.7V6.22A.23.23,0,0,1,6.09,6a.24.24,0,0,1,.24.24v4.45H4.92a.7.7,0,0,0-.7.7v.94a.23.23,0,0,0,.23.24Zm.24-.93v-.71a.23.23,0,0,1,.23-.23h8a.23.23,0,0,1,.23.23v.71ZM10.31,1l.4-.13a.2.2,0,0,1,.15,0l.39.13V1.3h-.94Zm0,.79h.94v.52a2.48,2.48,0,0,0-.94,0Zm-1.4,6.1A.63.63,0,0,1,9,7.61a1,1,0,0,0,.14-.46A1,1,0,0,0,9,6.7a.59.59,0,0,1-.09-.25A.6.6,0,0,1,9,6.21a1,1,0,0,0,.14-.46A1,1,0,0,0,9,5.3a.63.63,0,0,1-.09-.25V4.58a1.88,1.88,0,1,1,3.75,0v.49a.68.68,0,0,1-.1.25,1.08,1.08,0,0,0-.14.45,1.18,1.18,0,0,0,.14.46.65.65,0,0,1,.1.24.62.62,0,0,1-.1.25,1.08,1.08,0,0,0-.14.45,1.08,1.08,0,0,0,.14.46.68.68,0,0,1,.1.25v2.81H12V8.56a.23.23,0,0,0-.23-.23.23.23,0,0,0-.24.23v2.11H11V8.56a.23.23,0,0,0-.24-.23.23.23,0,0,0-.23.23v2.11h-.47V8.56a.23.23,0,0,0-.24-.23.23.23,0,0,0-.23.23v2.11h-.7Zm-6.1-7H7a.47.47,0,1,1,0,.93H2.81Zm.94,2.11A1.17,1.17,0,0,1,2.58,4.11a.24.24,0,0,1-.24-.24.23.23,0,0,1,.24-.23.7.7,0,0,0,.7-.7V2.23h.47Zm1.64-.71h.94v.94H5.39ZM4.92,3.64H6.8v1a1,1,0,0,0-.24,0H5.16a1,1,0,0,0-.24,0ZM2.11,13.25V7.86a.71.71,0,0,1,.7-.71h.47A1.11,1.11,0,0,0,4,6.92h.71a.23.23,0,0,0,.23-.23.23.23,0,0,0-.23-.24H4.35A1.1,1.1,0,0,0,4.45,6h.24a.23.23,0,0,0,.23-.23.23.23,0,0,0-.23-.24h-.2a.7.7,0,0,1,.67-.46h1.4a.7.7,0,0,1,.71.7v4.92H6.8V6.22a.71.71,0,1,0-1.41,0V7.39a.23.23,0,0,1-.23.23H3.28a.7.7,0,0,0-.7.71v4.45a.7.7,0,0,0,.7.7H4.45V14H2.81A.7.7,0,0,1,2.11,13.25Zm10.78.7h-.47v-.7a.23.23,0,0,0-.23-.24.24.24,0,0,0-.24.24V14h-.47v-.7a.23.23,0,1,0-.46,0V14h-.47v-.7a.24.24,0,0,0-.24-.24.23.23,0,0,0-.23.24V14H9.61v-.7a.24.24,0,1,0-.47,0V14H8.67v-.7A.23.23,0,0,0,8.44,13a.24.24,0,0,0-.24.24V14H7.73v-.7a.23.23,0,1,0-.46,0V14H6.8v-.7A.24.24,0,0,0,6.56,13a.23.23,0,0,0-.23.24V14H5.86v-.7a.24.24,0,1,0-.47,0V14H4.92v-1.4h8Z"/></svg>