<svg id="Layer_1" data-name="Layer 1" xmlns="http://www.w3.org/2000/svg" viewBox="0 0 15 15"><path d="M14.63,5.43V4.82a.48.48,0,0,0-.24-.42l-1.7-1a.2.2,0,0,0-.28.07.21.21,0,0,0,.07.29l1.7,1a.06.06,0,0,1,0,.06v.61a.07.07,0,0,1-.07.07H3.63a.21.21,0,0,0-.21.22.21.21,0,0,0,.21.21h9.44a.82.82,0,0,0,0,.82H1.82a.82.82,0,0,0,0-.82h.82a.22.22,0,1,0,0-.43H.75a.07.07,0,0,1-.07-.07V4.82a.05.05,0,0,1,0-.06L7.26.87a.35.35,0,0,1,.37,0l4,2.38a.21.21,0,1,0,.22-.36L7.84.51a.75.75,0,0,0-.79,0L.5,4.4a.48.48,0,0,0-.24.42v.61a.5.5,0,0,0,.18.39.84.84,0,0,0-.18.52A.82.82,0,0,0,.54,7a.86.86,0,0,0-.28.63.84.84,0,0,0,.28.62.84.84,0,0,0,0,1.25.82.82,0,0,0-.28.62.86.86,0,0,0,.28.63A.83.83,0,0,0,.54,12a.86.86,0,0,0-.28.63A.8.8,0,0,0,.38,13a.21.21,0,0,0-.12.19v1.36a.21.21,0,0,0,.21.21H11a.21.21,0,0,0,.21-.21.21.21,0,0,0-.21-.21H.68v-.94H14.21v.94H12a.21.21,0,0,0-.21.21.21.21,0,0,0,.21.21h2.45a.21.21,0,0,0,.21-.21V13.2a.21.21,0,0,0-.12-.19.8.8,0,0,0,.12-.43.86.86,0,0,0-.28-.63.83.83,0,0,0,0-1.24.86.86,0,0,0,.28-.63.82.82,0,0,0-.28-.62.84.84,0,0,0,0-1.25.84.84,0,0,0,.28-.62A.86.86,0,0,0,14.35,7a.82.82,0,0,0,.28-.62.84.84,0,0,0-.18-.52.5.5,0,0,0,.18-.39ZM12.48,7.17h.59a.88.88,0,0,0-.11.42.81.81,0,0,0,.11.41h-.59V7.17Zm0,1.25h.59a.81.81,0,0,0-.11.41.85.85,0,0,0,.11.42h-.59Zm0,1.25h.59a.81.81,0,0,0-.11.41.88.88,0,0,0,.11.42h-.59V9.67ZM7.66,7.17h4.4V10.5H7.66Zm-1.08,0h.66V8H6.58Zm0,1.25h.66v.83H6.58Zm0,1.25h.66v.83H6.58ZM1.09,13a.41.41,0,0,1-.41-.41.43.43,0,0,1,.41-.42h0a.43.43,0,0,1,.41.42A.41.41,0,0,1,1.09,13Zm0-1.25a.41.41,0,1,1,0-.82h0a.41.41,0,1,1,0,.82Zm0-1.24a.42.42,0,0,1-.41-.42.42.42,0,0,1,.83,0A.42.42,0,0,1,1.09,10.5Zm0-1.25h0a.42.42,0,0,1,0-.83.42.42,0,1,1,0,.83ZM1.1,8h0a.42.42,0,0,1,0-.83A.42.42,0,1,1,1.1,8Zm0-1.25a.41.41,0,1,1,0-.82h0a.41.41,0,1,1,0,.82ZM2.42,13h-.6a.81.81,0,0,0,.11-.41.88.88,0,0,0-.11-.42h.6Zm0-1.25h-.6a.82.82,0,0,0,0-.82h.6Zm0-1.24h-.6a.88.88,0,0,0,.11-.42.81.81,0,0,0-.11-.41h.6Zm0-1.25h-.6a.85.85,0,0,0,.11-.42.81.81,0,0,0-.11-.41h.6v.83ZM2.42,8h-.6a.81.81,0,0,0,.11-.41.88.88,0,0,0-.11-.42h.6V8Zm3.74,5H2.84V7.17H6.16V13Zm.42,0v-.83h6.49a.88.88,0,0,0-.11.42.81.81,0,0,0,.11.41Zm0-1.25v-.82h6.49a.82.82,0,0,0,0,.82ZM13.8,13a.41.41,0,0,1-.41-.41.42.42,0,0,1,.41-.42h0a.42.42,0,0,1,.41.42.41.41,0,0,1-.41.41Zm0-1.25a.41.41,0,0,1,0-.82h0a.41.41,0,0,1,0,.82Zm0-1.24a.41.41,0,0,1-.41-.42.41.41,0,0,1,.82,0A.41.41,0,0,1,13.8,10.5Zm0-1.25h0a.42.42,0,1,1,.41-.42.41.41,0,0,1-.41.42ZM13.8,8h0a.42.42,0,1,1,.41-.41A.41.41,0,0,1,13.8,8Zm0-1.25a.41.41,0,0,1,0-.82h0a.41.41,0,0,1,0,.82Z"/><path d="M4.89,10.29h.57a.21.21,0,0,0,.21-.21.21.21,0,0,0-.21-.21H4.89a.22.22,0,0,0-.21.21A.21.21,0,0,0,4.89,10.29Z"/><path d="M6.1,3.5A1.35,1.35,0,1,0,7.45,2.16,1.35,1.35,0,0,0,6.1,3.5Zm2.27,0a.93.93,0,1,1-.92-.92A.93.93,0,0,1,8.37,3.5Z"/><path d="M13.3,3.07a.21.21,0,0,0,.21.21.22.22,0,0,0,.22-.2s0,0,.07-.06a.46.46,0,0,0,.27-.4.46.46,0,0,0-.27-.4l-.07-.05.07-.06a.46.46,0,0,0,.27-.4.22.22,0,0,0-.43,0l-.07.05a.49.49,0,0,0-.27.41.49.49,0,0,0,.27.4l.07.05-.07,0A.49.49,0,0,0,13.3,3.07Z"/><path d="M11.55,2a.21.21,0,0,0,.21.21A.22.22,0,0,0,12,2s0,0,.07-.06a.49.49,0,0,0,.27-.4.46.46,0,0,0-.27-.4L12,1.06,12,1a.46.46,0,0,0,.27-.4A.21.21,0,0,0,12.1.4a.21.21,0,0,0-.21.21l-.08.05a.48.48,0,0,0-.26.4.49.49,0,0,0,.26.41.18.18,0,0,1,.07.05l-.07.05A.48.48,0,0,0,11.55,2Z"/><path d="M.83,2.62a.46.46,0,0,0,.26.4l.08.06a.2.2,0,0,0,.21.2.21.21,0,0,0,.21-.21.49.49,0,0,0-.27-.4l-.07,0,.07-.05a.49.49,0,0,0,.27-.4.49.49,0,0,0-.27-.41l-.07-.05a.21.21,0,0,0-.42,0,.46.46,0,0,0,.26.4s.06,0,.07.06l-.07.05a.46.46,0,0,0-.26.4Z"/><path d="M2.59,1.52a.48.48,0,0,0,.26.4L2.93,2a.2.2,0,0,0,.21.2A.21.21,0,0,0,3.35,2a.49.49,0,0,0-.27-.4L3,1.52l.07-.05a.49.49,0,0,0,.27-.41.49.49,0,0,0-.27-.4L3,.61A.22.22,0,0,0,2.8.4a.21.21,0,0,0-.21.21.46.46,0,0,0,.26.4l.07.05-.07.06A.46.46,0,0,0,2.59,1.52Z"/></svg>