<svg id="Layer_1" data-name="Layer 1" xmlns="http://www.w3.org/2000/svg" viewBox="0 0 15 15"><g id="Page-1"><g id="_037---Sheet" data-name="037---Sheet"><path id="Shape" d="M15,7.84l-.75-3.65a3,3,0,0,0-2.93-2.37H4A3,3,0,0,0,1.05,4.19l-1,4.52v0a3.61,3.61,0,0,0,3.65,4.34h9.9a1.36,1.36,0,0,0,1-.45A1.41,1.41,0,0,0,15,11.56,1.38,1.38,0,0,0,14,10.37a2.5,2.5,0,0,0,1-2.53ZM1.54,4.3A2.52,2.52,0,0,1,4,2.32h7.3a2.51,2.51,0,0,1,2.44,2l.44,2.16a2.46,2.46,0,0,0-1.66-.64H3.64A3.61,3.61,0,0,0,1,7L1,7Zm11,6H3.64A.84.84,0,0,1,3,10a.83.83,0,0,1-.22-.67.91.91,0,0,1,.92-.79h8.82a.25.25,0,0,0,0-.5H3.69A1.42,1.42,0,0,0,2.27,9.31a1.37,1.37,0,0,0,1.37,1.51h10a.91.91,0,0,1,.92.79.9.9,0,0,1-.22.67.87.87,0,0,1-.65.29H3.74a3.17,3.17,0,0,1-3.22-3,3.1,3.1,0,0,1,.85-2.31,3.13,3.13,0,0,1,2.27-1h8.87a2,2,0,0,1,0,4Z"/><path id="Shape-2" data-name="Shape" d="M2.22,4.7h.06a.25.25,0,0,0,.24-.19A1.51,1.51,0,0,1,4,3.32H6a.25.25,0,0,0,0-.5H4A2,2,0,0,0,2,4.4a.26.26,0,0,0,0,.19A.24.24,0,0,0,2.22,4.7Z"/><circle id="Oval" cx="7.01" cy="3.07" r="0.25"/></g></g></svg>