<svg id="Layer_1" data-name="Layer 1" xmlns="http://www.w3.org/2000/svg" viewBox="0 0 15 15"><path d="M3.63,1.77A1.41,1.41,0,1,0,5,3.18,1.41,1.41,0,0,0,3.63,1.77Zm0,2.35a.94.94,0,1,1,.93-.94A.94.94,0,0,1,3.63,4.12Z"/><path d="M6.19,9.91,4.79,5.22a.24.24,0,0,0-.23-.17H2.69a.24.24,0,0,0-.23.17L1.06,9.91a.26.26,0,0,0,0,.21.25.25,0,0,0,.19.09h.94v3a.23.23,0,0,0,.23.23H4.8A.23.23,0,0,0,5,13.26v-3H6A.23.23,0,0,0,6.2,10,.15.15,0,0,0,6.19,9.91ZM4.8,9.74a.24.24,0,0,0-.24.24v3h-.7V9.74H3.39V13h-.7V10a.24.24,0,0,0-.24-.24H1.6L2.86,5.52H4.39L5.65,9.74Z"/><path d="M11.59,1.77A1.41,1.41,0,1,0,13,3.18,1.41,1.41,0,0,0,11.59,1.77Zm0,2.35a.94.94,0,1,1,.94-.94A.94.94,0,0,1,11.59,4.12Z"/><path d="M12.3,5.05H10.89A1.65,1.65,0,0,0,9.25,6.69V10a.23.23,0,0,0,.23.23h.71v3a.23.23,0,0,0,.23.23h2.35a.23.23,0,0,0,.23-.23v-3h.7a.23.23,0,0,0,.24-.23V6.69A1.65,1.65,0,0,0,12.3,5.05Zm1.17,4.69H13V6.93h-.47V13h-.7V9.74h-.47V13h-.7V6.93h-.47V9.74H9.72v-3a1.17,1.17,0,0,1,1.17-1.17H12.3a1.18,1.18,0,0,1,1.17,1.17Z"/><rect x="7.38" y="0.6" width="0.47" height="14.06"/></svg>