<svg id="Layer_1" data-name="Layer 1" xmlns="http://www.w3.org/2000/svg" viewBox="0 0 15 15"><path d="M14.2,2H12.93a.22.22,0,1,0,0,.44H14.2a.36.36,0,0,1,.36.36v9.86a.36.36,0,0,1-.36.37H2.48a.22.22,0,0,0,0,.44H14.2a.8.8,0,0,0,.8-.81V2.81a.8.8,0,0,0-.8-.8Z"/><path d="M1.45,13H.81a.37.37,0,0,1-.37-.37V2.81a.37.37,0,0,1,.37-.36H11.9a.22.22,0,0,0,0-.44H.81a.81.81,0,0,0-.81.8v9.86a.81.81,0,0,0,.81.81h.64a.22.22,0,0,0,0-.44Z"/><path d="M11.15,9.09V8.77a2.55,2.55,0,0,0,2.33-2.33h.32A.22.22,0,0,0,14,6.22.22.22,0,0,0,13.8,6h-.32a2.55,2.55,0,0,0-2.33-2.32V3.35a.22.22,0,1,0-.44,0v.33A2.56,2.56,0,0,0,8.38,6H8.06a.22.22,0,0,0-.22.22.22.22,0,0,0,.22.22h.32a2.56,2.56,0,0,0,2.33,2.33v.32a.22.22,0,0,0,.44,0Zm0-.76V7.6A1.4,1.4,0,0,0,12.3,6.44H13A2.11,2.11,0,0,1,11.15,8.33Zm0-4.21A2.11,2.11,0,0,1,13,6H12.3a1.39,1.39,0,0,0-1.15-1.15Zm-.44,0v.73A1.4,1.4,0,0,0,9.56,6H8.83A2.11,2.11,0,0,1,10.71,4.12Zm0,4.21A2.11,2.11,0,0,1,8.83,6.44h.73A1.41,1.41,0,0,0,10.71,7.6Zm0-1.61v.43a1,1,0,0,1-.7-.71h.43a.22.22,0,0,0,.22-.22A.22.22,0,0,0,10.44,6H10a1,1,0,0,1,.7-.7v.43a.22.22,0,0,0,.44,0V5.3a1,1,0,0,1,.71.7h-.43a.22.22,0,0,0-.22.22.22.22,0,0,0,.22.22h.43a1,1,0,0,1-.71.71V6.72a.22.22,0,0,0-.44,0Z"/><path d="M6.94,6.44a.21.21,0,0,0,.22-.22A.22.22,0,0,0,6.94,6H6.62A2.55,2.55,0,0,0,4.29,3.68V3.35a.22.22,0,0,0-.22-.22.22.22,0,0,0-.22.22v.33A2.55,2.55,0,0,0,1.53,6H1.21A.22.22,0,0,0,1,6.22a.21.21,0,0,0,.22.22h.32A2.55,2.55,0,0,0,3.86,8.77v.32a.21.21,0,0,0,.21.22.21.21,0,0,0,.22-.22V8.77A2.55,2.55,0,0,0,6.62,6.44ZM3.86,4.12v.73A1.4,1.4,0,0,0,2.7,6H2A2.11,2.11,0,0,1,3.86,4.12Zm0,4.21A2.11,2.11,0,0,1,2,6.44H2.7A1.41,1.41,0,0,0,3.86,7.6ZM4.07,6.5a.21.21,0,0,0-.21.22v.43a1,1,0,0,1-.71-.71h.43a.22.22,0,0,0,.22-.22A.22.22,0,0,0,3.58,6H3.15a1,1,0,0,1,.71-.7v.43a.22.22,0,1,0,.43,0V5.3A1,1,0,0,1,5,6H4.57a.22.22,0,0,0-.22.22.22.22,0,0,0,.22.22H5a1,1,0,0,1-.71.71V6.72a.22.22,0,0,0-.22-.22Zm.22,1.83V7.6A1.42,1.42,0,0,0,5.45,6.44h.73A2.11,2.11,0,0,1,4.29,8.33ZM5.45,6A1.41,1.41,0,0,0,4.29,4.85V4.12A2.11,2.11,0,0,1,6.18,6Z"/><path d="M7.5,12.35a1,1,0,0,0,.22-2v-.16A.22.22,0,0,0,7.5,10a.22.22,0,0,0-.22.22v.16a1,1,0,0,0,.22,2Zm.22-1.52a.56.56,0,0,1,0,1Zm-.44,0v1a.57.57,0,0,1,0-1Z"/><path d="M5,10a.22.22,0,0,0-.22.22v.16a1,1,0,1,0,.44,0v-.16A.22.22,0,0,0,5,10Zm-.22,1.88a.57.57,0,0,1,0-1Zm.79-.52a.58.58,0,0,1-.35.52v-1A.58.58,0,0,1,5.58,11.35Z"/><path d="M10,10a.22.22,0,0,0-.22.22v.16a1,1,0,1,0,.44,0v-.16A.22.22,0,0,0,10,10Zm-.22,1.88a.56.56,0,0,1,0-1Zm.78-.52a.57.57,0,0,1-.34.52v-1A.57.57,0,0,1,10.56,11.35Z"/></svg>