<svg id="Layer_1" data-name="Layer 1" xmlns="http://www.w3.org/2000/svg" viewBox="0 0 15 15"><path d="M11.69,5.91H5.91v-4a.29.29,0,0,0,.26-.29V.51A.29.29,0,0,0,5.89.22H2.13a.28.28,0,0,0-.28.29V1.64a.29.29,0,0,0,.25.29V8.1a4.21,4.21,0,0,0,.54,2.05A4.3,4.3,0,0,0,4,11.59V14.5a.29.29,0,0,0,.28.29H8.45a.29.29,0,0,0,.28-.29V12.17a.46.46,0,0,1,.46-.45,4.16,4.16,0,0,0,4.15-4.16A1.65,1.65,0,0,0,11.69,5.91Zm-9-4H5.35V7.28H2.67ZM2.42.79H5.6v.57H2.42ZM9.19,11.15a1,1,0,0,0-1,1v2.05H4.55V11.43a.27.27,0,0,0-.14-.24A3.65,3.65,0,0,1,2.67,8.1V7.85H8.06a.29.29,0,0,0,.29-.29.28.28,0,0,0-.29-.28H5.91v-.8h5.78a1.07,1.07,0,0,1,1,.8H10.62a.28.28,0,0,0-.28.28.29.29,0,0,0,.28.29h2.14A3.59,3.59,0,0,1,9.19,11.15Z"/><path d="M9.34,7.28a.27.27,0,0,0-.28.28.28.28,0,0,0,.08.2.27.27,0,0,0,.2.09.31.31,0,0,0,.29-.29.27.27,0,0,0-.09-.2A.28.28,0,0,0,9.34,7.28Z"/><path d="M13,11.22a.28.28,0,0,0-.28.29v.37a.28.28,0,0,0,.56,0v-.37A.28.28,0,0,0,13,11.22Z"/><path d="M13,13.2a.27.27,0,0,0-.28.28v.36a.28.28,0,1,0,.56,0v-.36A.27.27,0,0,0,13,13.2Z"/><path d="M14.2,12.39h-.37a.29.29,0,1,0,0,.57h.37a.29.29,0,0,0,0-.57Z"/><path d="M12.23,12.39h-.37a.29.29,0,0,0,0,.57h.37a.29.29,0,1,0,0-.57Z"/><path d="M1.36,11.22a.29.29,0,0,0-.28.29v.37a.29.29,0,0,0,.57,0v-.37A.29.29,0,0,0,1.36,11.22Z"/><path d="M1.36,13.2a.28.28,0,0,0-.28.28v.36a.29.29,0,0,0,.57,0v-.36A.28.28,0,0,0,1.36,13.2Z"/><path d="M2.53,12.39H2.16a.29.29,0,0,0,0,.57h.37a.29.29,0,1,0,0-.57Z"/><path d="M.57,12.39H.2a.29.29,0,0,0-.29.28A.29.29,0,0,0,.2,13H.57a.29.29,0,0,0,0-.57Z"/><path d="M10.84,1.13a.28.28,0,0,0,.28-.28V.48a.28.28,0,0,0-.28-.29.29.29,0,0,0-.29.29V.85A.29.29,0,0,0,10.84,1.13Z"/><path d="M10.84,3.1a.28.28,0,0,0,.28-.29V2.45a.27.27,0,0,0-.28-.28.28.28,0,0,0-.29.28v.36A.29.29,0,0,0,10.84,3.1Z"/><path d="M11.64,1.93H12a.29.29,0,0,0,0-.57h-.37a.29.29,0,1,0,0,.57Z"/><path d="M9.67,1.93H10a.29.29,0,1,0,0-.57H9.67a.29.29,0,0,0,0,.57Z"/></svg>