<svg id="Layer_1" data-name="Layer 1" xmlns="http://www.w3.org/2000/svg" viewBox="0 0 15 15"><path d="M13.79,8.91V8.19A1.21,1.21,0,0,0,12.58,7H8.48a1.23,1.23,0,0,0-1,.48,1.19,1.19,0,0,0-1-.48H2.45A1.21,1.21,0,0,0,1.24,8.19v.72A1.21,1.21,0,0,0,0,10.12v4.34a.24.24,0,0,0,.24.24H14.75a.24.24,0,0,0,.24-.24V10.12A1.21,1.21,0,0,0,13.79,8.91ZM2.45,14.22H.51v-4.1a.74.74,0,0,1,.73-.73h.48a.74.74,0,0,1,.73.73ZM1.72,8.91V8.19a.73.73,0,0,1,.73-.73h4.1a.73.73,0,0,1,.72.73v2.89a1.24,1.24,0,0,0-.72-.24H3.65a1.24,1.24,0,0,0-.72.24v-1A1.21,1.21,0,0,0,1.72,8.91Zm5.55,3.14v.72H2.93v-.72a.73.73,0,0,1,.72-.73h2.9A.73.73,0,0,1,7.27,12.05Zm4.83,2.17H2.93v-1H12.1Zm0-1.45H7.75v-.72a.73.73,0,0,1,.73-.73h2.89a.73.73,0,0,1,.73.73Zm0-2.65v1a1.27,1.27,0,0,0-.73-.24H8.48a1.27,1.27,0,0,0-.73.24V8.19a.73.73,0,0,1,.73-.73h4.1a.73.73,0,0,1,.72.73v.72A1.21,1.21,0,0,0,12.1,10.12Zm2.41,4.1H12.58v-4.1a.73.73,0,0,1,.72-.73h.49a.73.73,0,0,1,.72.73Z"/><path d="M11.13.22H3.89a.24.24,0,0,0-.24.24V5.77A.24.24,0,0,0,3.89,6h7.24a.23.23,0,0,0,.24-.24V.46A.24.24,0,0,0,11.13.22Zm-.24,5.31H4.13V.71h6.76Z"/><path d="M10.41,1H4.62a.23.23,0,0,0-.24.24V5.05a.24.24,0,0,0,.24.24h5.79a.24.24,0,0,0,.24-.24V1.19A.24.24,0,0,0,10.41,1ZM5.61,4.81,6.31,4,7,4.81Zm2,0L7.12,4.2,8.11,3,9.44,4.81Zm2.54,0h-.12L8.31,2.49A.24.24,0,0,0,8,2.44l0,0L6.81,3.83l-.32-.38a.23.23,0,0,0-.34,0l0,0L5,4.81H4.86V1.43h5.31Z"/><path d="M6.31,3.12A.73.73,0,0,0,7,2.39a.72.72,0,0,0-.72-.72.73.73,0,0,0-.73.72A.73.73,0,0,0,6.31,3.12Zm0-1a.25.25,0,0,1,0,.49.25.25,0,1,1,0-.49Z"/></svg>