<svg id="Layer_1" data-name="Layer 1" xmlns="http://www.w3.org/2000/svg" viewBox="0 0 15 15"><path d="M14.81,8.89H10.12V8.42h.24a.23.23,0,0,0,.23-.24A.23.23,0,0,0,10.36,8h-.24V7.71a.94.94,0,0,1,1.88,0,.23.23,0,0,0,.23.24.24.24,0,0,0,.24-.24,1.41,1.41,0,0,0-2.81,0V8.89H5.72a.7.7,0,0,0,.19-.47V7a.23.23,0,0,0-.24-.23H2.16A.23.23,0,0,0,1.92,7V8.42a.74.74,0,0,0,.18.47H.28a.23.23,0,0,0-.23.23v5.62A.23.23,0,0,0,.28,15H14.81a.24.24,0,0,0,.24-.24V9.12A.23.23,0,0,0,14.81,8.89ZM2.39,7.24H5.44V8.42a.23.23,0,0,1-.24.23H2.62a.23.23,0,0,1-.23-.23ZM3.8,14.51H.52V11.7H3.8Zm0-3.28H.52V9.35h.7a.23.23,0,0,0,.23.24H2.86a.23.23,0,0,0,.23-.24H3.8Zm7,3.28H4.27V9.35h6.56Zm3.75,0H11.3V11.7h3.28Zm0-3.28H11.3V9.35H12a.23.23,0,0,0,.23.24h1.41a.23.23,0,0,0,.23-.24h.71Z"/><path d="M4.73,12.87h5.63a.23.23,0,0,0,.23-.23V10.29a.23.23,0,0,0-.23-.23H4.73a.23.23,0,0,0-.23.23v2.35A.23.23,0,0,0,4.73,12.87ZM5,10.53h5.15V12.4H5Z"/><path d="M9,13.57H6.14a.23.23,0,0,0-.23.24.23.23,0,0,0,.23.23H9a.23.23,0,0,0,.24-.23A.24.24,0,0,0,9,13.57Z"/><path d="M2.62,3.49h9.85a.23.23,0,0,0,.23-.23v-3A.23.23,0,0,0,12.47,0H2.62a.23.23,0,0,0-.23.23V3.26A.23.23,0,0,0,2.62,3.49Zm5.16-3h4.45V3H7.78ZM2.86.45H7.31V3H2.86Z"/><path d="M5.91,1.62H4a.23.23,0,0,0-.23.23A.23.23,0,0,0,4,2.09H5.91a.23.23,0,0,0,.23-.24A.23.23,0,0,0,5.91,1.62Z"/><path d="M11.06,1.62H9.19A.23.23,0,0,0,9,1.85a.24.24,0,0,0,.24.24h1.87a.24.24,0,0,0,.24-.24A.23.23,0,0,0,11.06,1.62Z"/><path d="M2.72,5.77a.64.64,0,0,0-.33.54.24.24,0,0,0,.47,0s0-.08.14-.17a.66.66,0,0,0,.33-.54A.69.69,0,0,0,3,5.06C2.88,5,2.86,5,2.86,4.9s0-.07.14-.16a.69.69,0,0,0,.33-.54A.24.24,0,0,0,3.09,4a.23.23,0,0,0-.23.24s0,.07-.14.16a.65.65,0,0,0-.33.54.65.65,0,0,0,.33.54c.12.09.14.11.14.16S2.84,5.68,2.72,5.77Z"/><path d="M4.17,4.74A.66.66,0,0,0,4.5,4.2.24.24,0,1,0,4,4.2s0,.07-.14.16a.67.67,0,0,0-.33.54.67.67,0,0,0,.33.54c.12.09.14.11.14.16s0,.08-.14.17a.66.66,0,0,0-.33.54.23.23,0,0,0,.24.23A.23.23,0,0,0,4,6.31s0-.08.14-.17A.64.64,0,0,0,4.5,5.6a.66.66,0,0,0-.33-.54C4.05,5,4,5,4,4.9S4.05,4.83,4.17,4.74Z"/><path d="M5.34,4.74a.66.66,0,0,0,.33-.54A.23.23,0,0,0,5.44,4a.24.24,0,0,0-.24.24s0,.07-.14.16a.67.67,0,0,0-.33.54.67.67,0,0,0,.33.54c.12.09.14.11.14.16s0,.08-.14.17a.66.66,0,0,0-.33.54A.23.23,0,0,0,5,6.54a.23.23,0,0,0,.23-.23s0-.08.14-.17a.64.64,0,0,0,.33-.54.66.66,0,0,0-.33-.54C5.23,5,5.2,5,5.2,4.9S5.23,4.83,5.34,4.74Z"/></svg>