<svg id="Layer_1" data-name="Layer 1" xmlns="http://www.w3.org/2000/svg" viewBox="0 0 15 15"><path d="M14.68,0H13.2a.29.29,0,0,0-.29.29V2.79H5.59v-.4a1,1,0,0,0-1-1H2V.32A.29.29,0,0,0,1.75,0H.27A.29.29,0,0,0,0,.32V6.21a.29.29,0,1,0,.58,0V.61h.9V14.44H.56V8.84a.29.29,0,0,0-.58,0v5.89a.29.29,0,0,0,.29.3H1.75a.29.29,0,0,0,.29-.3V13.55H8.13v1.18a.3.3,0,1,0,.59,0V13.57h2.22v1.16a.3.3,0,1,0,.59,0V13.55h1.38v1.18a.29.29,0,0,0,.29.3h1.48a.3.3,0,0,0,.3-.3V.32A.3.3,0,0,0,14.68,0ZM10.94,6.29v.87H8.72V6.29Zm0,5.24H8.72V10.7h2.22ZM8.72,10.07V9.2h2.22v.87Zm0-1.45V7.74h2.22v.88Zm0,3.49h2.22V13H8.72Zm2.22-6.47H8.72V4.83h2.22Zm0-2.26v.87H8.72V3.38Zm-4.75,0H8.13V5.64H7.28A1.09,1.09,0,0,1,6.19,4.55ZM2,2H4.61a.39.39,0,0,1,.4.39v.4H2ZM2,3.38H5.6V4.55A1.62,1.62,0,0,0,6,5.64H2ZM2,6.22H8.13v3.89H5.59V9.72a1,1,0,0,0-1-1H2Zm0,3.1H4.61a.4.4,0,0,1,.4.4v.39H2ZM2,10.7H5.6v1.17A1.62,1.62,0,0,0,6,13H2ZM7.28,13a1.09,1.09,0,0,1-1.09-1.09V10.7H8.13V13Zm5.63,0H11.53V10.7h1.38Zm0-2.85H11.53V6.22h1.38Zm0-4.47H11.53V3.38h1.38Zm1.48,8.8h-.9V.61h.9Z"/><path d="M.27,7.82A.3.3,0,1,0,0,7.53H0A.29.29,0,0,0,.27,7.82Z"/></svg>