<svg id="Layer_1" data-name="Layer 1" xmlns="http://www.w3.org/2000/svg" viewBox="0 0 15 15"><path d="M14.21,11.21H.77a.37.37,0,0,0-.38.37v3a.38.38,0,0,0,.38.38.38.38,0,0,0,.37-.38V12H13.83v2.61a.38.38,0,1,0,.75,0v-3A.37.37,0,0,0,14.21,11.21Z"/><path d="M14.21,13.44H.77a.38.38,0,1,0,0,.75H14.21a.38.38,0,0,0,0-.75Z"/><path d="M14.21,9a.37.37,0,0,0-.38.37v.48L11.56,4.71a.37.37,0,0,0-.68.3l3,6.72a.38.38,0,0,0,.35.22h.07a.36.36,0,0,0,.3-.36V9.34A.37.37,0,0,0,14.21,9Z"/><path d="M4.87,4.49H3.75a.37.37,0,0,0-.34.22L1.14,9.82V9.34A.37.37,0,0,0,.77,9a.37.37,0,0,0-.38.37v2.24a.37.37,0,0,0,.3.36H.77a.37.37,0,0,0,.34-.22L4,5.23h.87a.37.37,0,1,0,0-.74Z"/><path d="M9.73,0H5.25A1.87,1.87,0,0,0,3.38,1.87v3a.38.38,0,0,0,.75,0v-3A1.12,1.12,0,0,1,5.25.75H9.73a1.13,1.13,0,0,1,1.12,1.12V4.49H10.1a.37.37,0,1,0,0,.74h1.12a.36.36,0,0,0,.37-.37v-3A1.86,1.86,0,0,0,9.73,0Z"/><path d="M10.36,5.47,10.18,4A1.12,1.12,0,0,0,9.07,3H5.91A1.12,1.12,0,0,0,4.79,4l-.18,1.5A1.12,1.12,0,0,0,5.72,6.73H9.25a1.12,1.12,0,0,0,.84-.38A1.09,1.09,0,0,0,10.36,5.47Zm-.83.38A.37.37,0,0,1,9.25,6H5.72a.37.37,0,0,1-.28-.13.38.38,0,0,1-.09-.29l.19-1.49a.37.37,0,0,1,.37-.33H9.07a.38.38,0,0,1,.37.33l.18,1.49A.34.34,0,0,1,9.53,5.85Z"/></svg>