<svg id="Layer_1" data-name="Layer 1" xmlns="http://www.w3.org/2000/svg" viewBox="0 0 15 15"><path d="M14.55,8.94l-.71-5a1.57,1.57,0,0,0-1.55-1.33H10a9.21,9.21,0,0,0-8.6,5.87v0l-.15.48H1a.44.44,0,0,0-.42.3L0,10.85a.47.47,0,0,0,.06.4.43.43,0,0,0,.36.18H14.55A.44.44,0,0,0,15,11V9.38a.44.44,0,0,0-.44-.44ZM2.26,8.74A8.33,8.33,0,0,1,10,3.45h2.25A.69.69,0,0,1,13,4l.69,4.92H2.2Zm11.85,1.82H1l.25-.74H14.11Z"/><circle cx="12.54" cy="7.89" r="0.44"/><circle cx="10.91" cy="7.89" r="0.44"/><path d="M12.22,4.84A.82.82,0,0,0,11.4,4H9a3.73,3.73,0,0,0-3.4,2.11.44.44,0,0,0,0,.43A.45.45,0,0,0,6,6.78h5.81a.44.44,0,0,0,.44-.44ZM11.34,5.9H6.79a2.88,2.88,0,0,1,.77-.63A2.83,2.83,0,0,1,9,4.91h2.36v1Z"/></svg>