<svg id="Layer_1" data-name="Layer 1" xmlns="http://www.w3.org/2000/svg" viewBox="0 0 15 15"><path d="M15,11.67,14.4,9.14a1.77,1.77,0,0,0-.51-.84S15,3.32,15,2.82a1.05,1.05,0,0,0-1-1,1,1,0,0,0-1,1,.29.29,0,0,0,.29.3.3.3,0,0,0,.3-.3A.41.41,0,0,1,14,2.37a.46.46,0,0,1,.43.45,1,1,0,0,1,0,.2,1.06,1.06,0,0,1-.51.43,9.55,9.55,0,0,1-2.72.48,6.7,6.7,0,0,1-2.79-.49A1,1,0,0,1,8,3.17a.51.51,0,0,1-.16-.35.41.41,0,0,1,.41-.45.44.44,0,0,1,.47.45.3.3,0,1,0,.59,0,1,1,0,0,0-1-1,1.47,1.47,0,0,0-.73.31,1,1,0,0,0-1.76.72.3.3,0,1,0,.59,0,.44.44,0,1,1,.88,0,.5.5,0,0,1-.15.34,1.26,1.26,0,0,1-.41.29A6.34,6.34,0,0,1,4,3.93a9.94,9.94,0,0,1-2.81-.49A1,1,0,0,1,.64,3a.79.79,0,0,1-.05-.2A.45.45,0,0,1,1,2.37a.45.45,0,0,1,.44.45.29.29,0,1,0,.58,0,1,1,0,0,0-1-1,1,1,0,0,0-1,1c0,.08.35,1.77.35,1.77a.3.3,0,0,0,.29.23h0a.29.29,0,0,0,.23-.34L.83,4a7,7,0,0,0,3.11.56,10,10,0,0,0,1.57-.13A4.7,4.7,0,0,0,6.83,4c.17-.08.67-.43.67-.43s.48.32.65.41a7.51,7.51,0,0,0,2.94.55A7.51,7.51,0,0,0,14.17,4l-.81,4h0a2.18,2.18,0,0,0-.44-.11V6.17a.28.28,0,0,0-.29-.28H10v-.4a.27.27,0,0,0-.29-.27H5.3A.27.27,0,0,0,5,5.49v.4H2.37a.28.28,0,0,0-.29.28V7.85A1.83,1.83,0,0,0,1.62,8h0L1.43,7a.3.3,0,0,0-.29-.23H1.08a.3.3,0,0,0-.23.35l.23,1.18a1.63,1.63,0,0,0-.48.81L0,11.67a.32.32,0,0,0,0,.25A.31.31,0,0,0,.29,12H.88v2.05a.3.3,0,0,0,.29.3H2.93a.3.3,0,0,0,.29-.3v-.88h8.56v.88a.3.3,0,0,0,.29.3h1.76a.3.3,0,0,0,.29-.3V12h.59a.31.31,0,0,0,.23-.12.32.32,0,0,0,.05-.25ZM10,6.48h2.34V7.85H10ZM5.6,5.8H9.41V7.85H5.6Zm-2.93.68H5V7.85H2.67Zm0,7.32H1.47v-.59H2.64Zm10.9,0H12.36v-.59h1.18Zm0-1.17H1.47V12H13.54ZM.66,11.46,1.17,9.3A1.16,1.16,0,0,1,2.3,8.44H12.7a1.18,1.18,0,0,1,1.14.86l.5,2.16Z"/><circle cx="0.89" cy="5.8" r="0.29"/></svg>