<svg id="Layer_1" data-name="Layer 1" xmlns="http://www.w3.org/2000/svg" viewBox="0 0 15 15"><path d="M12.42,0H2.58a.23.23,0,0,0-.24.23V14.79a.24.24,0,0,0,.24.23h9.84a.24.24,0,0,0,.24-.23V.25A.23.23,0,0,0,12.42,0ZM7.27,14.55H2.81V12.68H4.22a.23.23,0,1,0,0,.46H5.86a.23.23,0,0,0,0-.46H7.27Zm0-2.34H2.81V10.33H4.22a.24.24,0,0,0-.24.24.23.23,0,0,0,.24.23H5.86a.23.23,0,0,0,.23-.23.23.23,0,0,0-.23-.24H7.27Zm0-2.35H2.81V.49H7.27Zm4.92,4.69H7.73V12.68H9.14a.23.23,0,0,0,0,.46h1.64a.23.23,0,1,0,0-.46h1.41Zm0-2.34H7.73V10.33H9.14a.23.23,0,0,0-.23.24.23.23,0,0,0,.23.23h1.64a.23.23,0,0,0,.24-.23.24.24,0,0,0-.24-.24h1.41Zm0-2.35H7.73V.49h4.46Z"/><path d="M6.09,4.24a.23.23,0,0,0-.23.23V6.58a.23.23,0,0,0,.23.24.24.24,0,0,0,.24-.24V4.47A.23.23,0,0,0,6.09,4.24Z"/><path d="M8.91,4.24a.23.23,0,0,0-.24.23V6.58a.24.24,0,0,0,.24.24.23.23,0,0,0,.23-.24V4.47A.23.23,0,0,0,8.91,4.24Z"/></svg>