<svg id="Layer_1" data-name="Layer 1" xmlns="http://www.w3.org/2000/svg" viewBox="0 0 15 15"><defs><style>.cls-1{fill:#fff;}</style></defs><path class="cls-1" d="M14.77,14.43v.39H.66V.71h7L6.27,1.5,2.18,3.92a.49.49,0,0,0-.27.42,4.85,4.85,0,0,0,0,.66,1.42,1.42,0,0,0,.93,1.26A1.48,1.48,0,0,0,4.43,6L4.5,6A1.55,1.55,0,0,0,6.64,6a5.61,5.61,0,0,0,.51.3.18.18,0,0,1,.13.19c0,1,0,2.09,0,3.13a.81.81,0,0,1,0,.15H4a.48.48,0,0,0-.49.3.46.46,0,0,0,.46.6H7.26v3.23H5.46v-2c0-.36-.17-.53-.53-.53H3v-3a1.64,1.64,0,0,0,0-.22.44.44,0,0,0-.57-.31.45.45,0,0,0-.32.5v5.52h-1a.45.45,0,0,0-.44.32.46.46,0,0,0,.49.59H12.83a.46.46,0,0,0,.52-.53v-6A.46.46,0,0,0,13,7.84a.45.45,0,0,0-.48.28.75.75,0,0,0,0,.26v3H10.58c-.43,0-.58.15-.58.58v1.93H8.19V10.65h3.28a.45.45,0,1,0-.05-.9H8.18V7.94c0-.5,0-1,0-1.5,0-.05,0-.12.05-.14L8.83,6a1.5,1.5,0,0,0,1.05.42A1.57,1.57,0,0,0,11,6L11,6a1.53,1.53,0,0,0,2.48-.87,6,6,0,0,0,0-.74.52.52,0,0,0-.28-.51L11,2.57,7.84.71h6.93V14.24l0-.1a.45.45,0,1,0-.5.64C14.45,14.83,14.64,14.71,14.77,14.43Z"/><path d="M7.84.71,11,2.57l2.27,1.34a.52.52,0,0,1,.28.51,6,6,0,0,1,0,.74A1.53,1.53,0,0,1,11,6L11,6a1.57,1.57,0,0,1-1.07.44A1.5,1.5,0,0,1,8.83,6l-.59.33s-.05.09-.05.14c0,.5,0,1,0,1.5v1.8h3.24a.45.45,0,1,1,.05.9H8.19v3.23H10V12c0-.43.15-.58.58-.58h1.86v-3a.75.75,0,0,1,0-.26A.45.45,0,0,1,13,7.84a.46.46,0,0,1,.39.43v6a.46.46,0,0,1-.52.53H1.2a.46.46,0,0,1-.49-.59.45.45,0,0,1,.44-.32h1V8.36a.45.45,0,0,1,.32-.5A.44.44,0,0,1,3,8.17a1.64,1.64,0,0,1,0,.22v3H4.93c.36,0,.52.17.53.53v2h1.8V10.65H4a.46.46,0,0,1-.46-.6A.48.48,0,0,1,4,9.74H7.26a.81.81,0,0,0,0-.15c0-1,0-2.09,0-3.13a.18.18,0,0,0-.13-.19A5.61,5.61,0,0,1,6.64,6,1.55,1.55,0,0,1,4.5,6L4.43,6a1.48,1.48,0,0,1-1.58.24A1.42,1.42,0,0,1,1.92,5a4.85,4.85,0,0,1,0-.66.49.49,0,0,1,.27-.42L6.27,1.5,7.62.71ZM3,12.29v1.59H4.54V12.29Zm7.89,0v1.58h1.51V12.29Z"/><path d="M14.77,14.43c-.13.28-.32.4-.55.35a.45.45,0,1,1,.5-.64l0,.1Z"/><path class="cls-1" d="M3,12.29H4.54v1.59H3Z"/><path class="cls-1" d="M10.92,12.29h1.51v1.58H10.92Z"/></svg>