<svg id="Layer_1" data-name="Layer 1" xmlns="http://www.w3.org/2000/svg" viewBox="0 0 15 15"><path d="M13.65,7.8l-.56.33a.75.75,0,0,1-.75,0l-.52-.31a1.62,1.62,0,0,0-1.66,0l-.55.33a.76.76,0,0,1-.76,0l-.52-.31-.16-.08v-6a.94.94,0,1,1,1.88,0v1h.88v-1a1.82,1.82,0,0,0-3.64,0V5.18H3.6V1.69a.94.94,0,0,1,1.88,0v1h.88v-1a1.82,1.82,0,0,0-3.64,0V8.08l-.09.05a.75.75,0,0,1-.75,0l-.52-.31-.45.76.51.31a1.64,1.64,0,0,0,1.66,0l.55-.32a.74.74,0,0,1,.76,0l.52.32a1.62,1.62,0,0,0,1.65,0l.56-.32a.74.74,0,0,1,.76,0l.52.32a1.59,1.59,0,0,0,1.65,0l.56-.32a.72.72,0,0,1,.75,0l.52.32a1.64,1.64,0,0,0,1.66,0l.55-.32ZM7.29,7.59a1.82,1.82,0,0,0-.62.21l-.55.33a.76.76,0,0,1-.76,0l-.52-.31A1.6,1.6,0,0,0,3.6,7.63V6.06H7.29Z"/><path d="M13.65,10.73l-.56.33a.72.72,0,0,1-.75,0l-.52-.32a1.64,1.64,0,0,0-1.66,0l-.55.33a.74.74,0,0,1-.76,0l-.52-.32a1.64,1.64,0,0,0-1.66,0l-.55.33a.74.74,0,0,1-.76,0l-.52-.32a1.63,1.63,0,0,0-1.65,0l-.56.33a.72.72,0,0,1-.75,0l-.52-.31-.45.75.51.31a1.64,1.64,0,0,0,1.66,0l.55-.33a.76.76,0,0,1,.76,0l.52.31a1.63,1.63,0,0,0,1.65,0l.56-.33a.76.76,0,0,1,.76,0l.52.31a1.62,1.62,0,0,0,.83.23,1.6,1.6,0,0,0,.82-.22l.56-.33a.75.75,0,0,1,.75,0l.52.31a1.64,1.64,0,0,0,1.66,0l.55-.33Z"/><path d="M13.65,13.56l-.56.33a.75.75,0,0,1-.75,0l-.52-.31a1.62,1.62,0,0,0-1.66,0l-.55.33a.76.76,0,0,1-.76,0l-.52-.31a1.62,1.62,0,0,0-1.66,0l-.55.33a.76.76,0,0,1-.76,0l-.52-.31a1.6,1.6,0,0,0-1.65,0l-.56.33a.75.75,0,0,1-.75,0l-.52-.31-.45.76.51.31a1.64,1.64,0,0,0,1.66,0l.55-.33a.74.74,0,0,1,.76,0l.52.32a1.63,1.63,0,0,0,1.65,0l.56-.33a.74.74,0,0,1,.76,0l.52.32a1.62,1.62,0,0,0,.83.23,1.71,1.71,0,0,0,.82-.22l.56-.33a.72.72,0,0,1,.75,0l.52.32a1.64,1.64,0,0,0,1.66,0l.55-.33Z"/></svg>