<svg id="Layer_1" data-name="Layer 1" xmlns="http://www.w3.org/2000/svg" viewBox="0 0 15 15"><path d="M14.65,1.92H11.26V1.63a.3.3,0,0,0-.3-.3.29.29,0,0,0-.29.3v.29H4.22V1.63a.29.29,0,1,0-.58,0v.29H.24a.29.29,0,0,0,0,.58h3.4v2L2,7.19H1.59a.3.3,0,1,0,0,.59h.3A5.57,5.57,0,0,0,13,7.78h.3a.3.3,0,0,0,0-.59h-.42L11.26,4.47v-2h3.39a.29.29,0,1,0,0-.58ZM4.22,5.61l1,1.58h-1ZM3.64,7.19h-1l1-1.58Zm3.81,5.28a5,5,0,0,1-5-4.69H5.41a3.81,3.81,0,0,0,5.84,2.92A5,5,0,0,1,7.45,12.47Zm1.76-1.76A3.3,3.3,0,0,1,8,10.49,3.65,3.65,0,0,0,9,9.38a3.94,3.94,0,0,0,.5-1.6h2.92a3.22,3.22,0,0,1-3.2,2.93Zm1.46-3.52H9.72l.95-1.58Zm1.53,0h-.94V5.61ZM10.67,4.47,9,7.19H8.62a.3.3,0,0,0,0,.59H8.9a3.24,3.24,0,0,1-1.45,2.41A3.21,3.21,0,0,1,6,7.78h.28a.3.3,0,0,0,0-.59H5.86L4.22,4.47v-2h6.45Z"/></svg>