<svg id="Layer_1" data-name="Layer 1" xmlns="http://www.w3.org/2000/svg" viewBox="0 0 15 15"><path d="M13.32.39a1.44,1.44,0,0,0-1.23.72H6.81a1,1,0,0,0-1,1V3.3A3.28,3.28,0,0,0,3.24,6.5,1.94,1.94,0,0,0,4.41,8.13V9.55a.23.23,0,0,0,.24.23.23.23,0,0,0,.23-.23V8.33a2.79,2.79,0,0,0,.47.14V10a.23.23,0,0,0,.24.23A.23.23,0,0,0,5.82,10V8.56a3.57,3.57,0,0,0,.47,0V10a.23.23,0,0,0,.23.23A.23.23,0,0,0,6.76,10V8.6a3.73,3.73,0,0,0,.47,0V10a.23.23,0,0,0,.23.23A.23.23,0,0,0,7.7,10V8.47a2.69,2.69,0,0,0,.46-.14V9.55a.23.23,0,0,0,.24.23.23.23,0,0,0,.23-.23V8.13A1.94,1.94,0,0,0,9.8,6.5,3.27,3.27,0,0,0,7.23,3.3V2.52H12.1a1.42,1.42,0,0,0,1.22.7A.23.23,0,0,0,13.55,3V.63A.23.23,0,0,0,13.32.39Zm-4,6.11a1.34,1.34,0,0,1-.71,1.07V7.44A.23.23,0,0,0,8.4,7.2a.24.24,0,0,0-.24.24v.38A2.8,2.8,0,0,1,7.7,8V7.44a.24.24,0,0,0-.24-.24.23.23,0,0,0-.23.24v.64a2.59,2.59,0,0,1-.47.05V7.44a.24.24,0,0,0-.24-.24.23.23,0,0,0-.23.24v.69a2.5,2.5,0,0,1-.47-.05V7.44a.23.23,0,0,0-.23-.24.24.24,0,0,0-.24.24V8a2.6,2.6,0,0,1-.47-.16V7.44a.23.23,0,0,0-.23-.24.24.24,0,0,0-.24.24v.13a1.35,1.35,0,0,1-.7-1.07c0-.89,1.29-1.64,2.81-1.64S9.34,5.61,9.34,6.5ZM8,4.08a2.84,2.84,0,0,1,1,1,4.27,4.27,0,0,0-2.41-.67,4.29,4.29,0,0,0-2.41.67A2.81,2.81,0,0,1,8,4.08Zm4-2.39v.36H7a.23.23,0,0,0-.23.23v1H6.29V2.1a.52.52,0,0,1,.52-.52h5.1Zm1.18,1a.94.94,0,0,1-.71-.84V1.74a.94.94,0,0,1,.71-.85Z"/><path d="M8.4,10.25a.24.24,0,0,0-.24.23v1.65a.24.24,0,0,0,.24.23.23.23,0,0,0,.23-.23V10.48A.23.23,0,0,0,8.4,10.25Z"/><path d="M7.46,10.72a.23.23,0,0,0-.23.23v.71a.23.23,0,0,0,.23.23.23.23,0,0,0,.24-.23V11A.23.23,0,0,0,7.46,10.72Z"/><path d="M6.52,10.72a.23.23,0,0,0-.23.23v1.88a.23.23,0,0,0,.23.23.23.23,0,0,0,.24-.23V11A.23.23,0,0,0,6.52,10.72Z"/><path d="M5.59,10.72a.23.23,0,0,0-.24.23v1.41a.23.23,0,0,0,.24.23.23.23,0,0,0,.23-.23V11A.23.23,0,0,0,5.59,10.72Z"/><path d="M4.65,10.25a.24.24,0,0,0-.24.23v.71a.23.23,0,0,0,.24.23.23.23,0,0,0,.23-.23v-.71A.23.23,0,0,0,4.65,10.25Z"/><path d="M7.46,12.36a.23.23,0,0,0-.23.23v.24a.23.23,0,0,0,.23.23.23.23,0,0,0,.24-.23v-.24A.23.23,0,0,0,7.46,12.36Z"/><path d="M4.65,11.89a.24.24,0,0,0-.24.24v1.64a.23.23,0,0,0,.24.23.23.23,0,0,0,.23-.23V12.13A.23.23,0,0,0,4.65,11.89Z"/><path d="M5.59,13.06a.24.24,0,0,0-.24.24v.93a.24.24,0,0,0,.24.24.23.23,0,0,0,.23-.24V13.3A.23.23,0,0,0,5.59,13.06Z"/><path d="M6.52,13.53a.23.23,0,0,0-.23.24V14a.23.23,0,0,0,.23.23A.23.23,0,0,0,6.76,14v-.23A.24.24,0,0,0,6.52,13.53Z"/><path d="M7.46,13.53a.23.23,0,0,0-.23.24v.46a.23.23,0,0,0,.23.24.24.24,0,0,0,.24-.24v-.46A.24.24,0,0,0,7.46,13.53Z"/><path d="M8.4,12.83a.23.23,0,0,0-.24.23v.47a.24.24,0,0,0,.24.24.23.23,0,0,0,.23-.24v-.47A.23.23,0,0,0,8.4,12.83Z"/></svg>