<svg id="Layer_1" data-name="Layer 1" xmlns="http://www.w3.org/2000/svg" viewBox="0 0 15 15"><circle cx="1.38" cy="1.47" r="0.23"/><circle cx="3.02" cy="1.47" r="0.23"/><circle cx="4.89" cy="1.47" r="0.23"/><circle cx="6.53" cy="1.47" r="0.23"/><path d="M14.5.3H.44A.23.23,0,0,0,.21.53V14.6a.23.23,0,0,0,.23.23H14.5a.23.23,0,0,0,.24-.23V.53A.23.23,0,0,0,14.5.3Zm-6.79,7v-3h6.56V7.33Zm-.47,3.52H.67v-3H7.24Zm7-7H7.71v-3h6.56Zm-7-3V7.33h-3V.77ZM.67.77H3.72V7.33H.67Zm0,10.55H7.24v3H.67Zm7,3V7.8h3v6.56Zm6.56,0h-3V7.8h3Z"/><circle cx="13.56" cy="1.47" r="0.23"/><circle cx="13.56" cy="3.11" r="0.23"/><circle cx="13.56" cy="4.99" r="0.23"/><circle cx="13.56" cy="6.63" r="0.23"/><path d="M6.53,6.39a.23.23,0,0,0,.24-.23V3.35a.24.24,0,0,0-.24-.24.23.23,0,0,0-.23.24V6.16A.23.23,0,0,0,6.53,6.39Z"/><path d="M8.41,1.71h1.87a.24.24,0,0,0,.24-.24.23.23,0,0,0-.24-.23H8.41a.23.23,0,0,0-.24.23A.24.24,0,0,0,8.41,1.71Z"/><circle cx="13.56" cy="13.66" r="0.23"/><circle cx="11.92" cy="13.66" r="0.23"/><circle cx="10.05" cy="13.66" r="0.23"/><circle cx="8.41" cy="13.66" r="0.23"/><circle cx="1.38" cy="13.66" r="0.23"/><circle cx="1.38" cy="12.02" r="0.23"/><circle cx="1.38" cy="10.14" r="0.23"/><circle cx="1.38" cy="8.5" r="0.23"/><path d="M8.41,8.74A.23.23,0,0,0,8.17,9v2.81a.24.24,0,0,0,.24.24.23.23,0,0,0,.23-.24V9A.23.23,0,0,0,8.41,8.74Z"/><path d="M6.53,13.42H4.66a.24.24,0,0,0-.24.24.23.23,0,0,0,.24.23H6.53a.23.23,0,0,0,.24-.23A.24.24,0,0,0,6.53,13.42Z"/></svg>