<svg id="Layer_1" data-name="Layer 1" xmlns="http://www.w3.org/2000/svg" viewBox="0 0 15 15"><path d="M5.44,5.69a.3.3,0,0,0-.21-.08.3.3,0,0,0-.2.08.29.29,0,0,0,0,.42.3.3,0,0,0,.2.08.3.3,0,0,0,.21-.08.29.29,0,0,0,0-.42Z"/><path d="M14.68,3.15a.29.29,0,0,0-.29.29V7.78H10.46a.29.29,0,0,0-.29.29v4.16a.3.3,0,0,0,.59,0V9.77h3.63v2.46a.29.29,0,0,0,.29.29.3.3,0,0,0,.3-.29V3.44A.3.3,0,0,0,14.68,3.15Zm-.29,6H10.76V8.36h3.63Z"/><path d="M4.49,7.78H.56V3.44a.29.29,0,0,0-.58,0v8.79a.29.29,0,0,0,.58,0V9.77H4.19v2.46a.3.3,0,0,0,.3.29.29.29,0,0,0,.29-.29V8.07A.29.29,0,0,0,4.49,7.78Zm-.3,1.4H.56V8.36H4.19Z"/><path d="M11.05,4.2h-.29V3.68a.87.87,0,0,0,.58-.82V2a.29.29,0,0,0-.29-.3H9.88a.29.29,0,0,0-.29.3v.82a.87.87,0,0,0,.58.82V4.2H8.88a1.42,1.42,0,0,0,.3-.88A.3.3,0,0,0,8.88,3H6.07a.29.29,0,0,0-.29.29,1.47,1.47,0,0,0,.29.88H4.78V3.68a.88.88,0,0,0,.59-.82V2a.29.29,0,0,0-.3-.3H3.9a.29.29,0,0,0-.29.3v.82a.87.87,0,0,0,.58.82V4.2H3.9a1,1,0,0,0,0,2h.16a.29.29,0,1,0,0-.58H3.9a.42.42,0,0,1-.41-.41.41.41,0,0,1,.41-.41h7.15a.41.41,0,0,1,.41.41.41.41,0,0,1-.41.41H6.32a.29.29,0,0,0,0,.58H6.6v4.68a1.47,1.47,0,0,0-.92,1.36.29.29,0,0,0,.29.29H9a.29.29,0,0,0,.3-.29,1.45,1.45,0,0,0-.93-1.36V6.19h2.7a1,1,0,1,0,0-2ZM4.5,3.15h0a.3.3,0,0,1-.29-.29V2.33h.59v.53A.3.3,0,0,1,4.5,3.15ZM7.71,4.2H7.24a.88.88,0,0,1-.83-.58H8.54A.88.88,0,0,1,7.71,4.2Zm2.76-1.05h0a.3.3,0,0,1-.28-.29V2.33h.59v.53A.3.3,0,0,1,10.47,3.15Zm-3.29,3h.59v4.56H7.18Zm1.46,5.75H6.32a.87.87,0,0,1,.83-.59h.66A.87.87,0,0,1,8.64,11.94Z"/></svg>