<svg id="Layer_1" data-name="Layer 1" xmlns="http://www.w3.org/2000/svg" viewBox="0 0 15 15"><path d="M14.34,7.1h-.82l-.12,0V5.23a.76.76,0,0,0-.76-.76H2.56a.76.76,0,0,0-.76.76V7.12l-.12,0H.86a.47.47,0,0,0-.47.47V9.92a.76.76,0,0,0,.76.76h.7l.25.76a.17.17,0,0,0,.17.12h.29a.19.19,0,0,0,.17-.12L3,10.68h9.24l.25.76a.17.17,0,0,0,.17.12h.29a.18.18,0,0,0,.17-.12l.25-.76H14a.77.77,0,0,0,.77-.76V7.57A.48.48,0,0,0,14.34,7.1ZM13.05,5.23V8.45a.41.41,0,0,1-.41.41H10.36a.16.16,0,0,0,.11,0l1.18-1.17a.2.2,0,0,0,0-.25L10.47,6.22a.16.16,0,0,0-.24,0L9.05,7.39a.2.2,0,0,0,0,.25l1.18,1.17a.16.16,0,0,0,.11,0H7.77v-4h4.87A.41.41,0,0,1,13.05,5.23Zm-2.7,3.21-.92-.92.92-.93.92.93ZM2.15,5.23a.41.41,0,0,1,.41-.41H7.42v4H4.79a.17.17,0,0,0,.12,0L6.08,7.64a.18.18,0,0,0,0-.25L4.91,6.22a.18.18,0,0,0-.25,0L3.49,7.39a.18.18,0,0,0,0,.25L4.66,8.81a.17.17,0,0,0,.12,0H2.56a.41.41,0,0,1-.41-.41ZM4.79,8.44l-.93-.92.93-.93.92.93ZM2.43,11.21h0l-.17-.53h.39Zm10.37,0h0l-.17-.53H13Zm1.65-1.29a.41.41,0,0,1-.41.41H1.15a.42.42,0,0,1-.41-.41V7.57a.12.12,0,0,1,.12-.11h.82a.12.12,0,0,1,.12.11v.88a.76.76,0,0,0,.76.76H12.64a.76.76,0,0,0,.76-.76V7.57a.11.11,0,0,1,.12-.11h.82a.11.11,0,0,1,.11.11Z"/></svg>