<svg id="Layer_1" data-name="Layer 1" xmlns="http://www.w3.org/2000/svg" viewBox="0 0 15 15"><path d="M14.94,7,13.39,4.55a.32.32,0,0,0-.27-.14H1.87a.31.31,0,0,0-.26.14L.05,7.05a.31.31,0,0,0,0,.32.3.3,0,0,0,.27.16h3L7,10.16,2.32,13.53a.32.32,0,0,0-.07.44.31.31,0,0,0,.25.13A.3.3,0,0,0,2.68,14L7.5,10.55,12.32,14a.3.3,0,0,0,.18.06.31.31,0,0,0,.25-.13.32.32,0,0,0-.07-.44L8,10.16l3.63-2.63h3A.31.31,0,0,0,15,7.22.28.28,0,0,0,14.94,7ZM3.69,6.91H.88L2.05,5H4.26ZM4.92,5H7.19V6.91H4.34ZM7.5,9.77,4.41,7.53h6.18Zm.31-2.86V5h2.27l.58,1.88Zm3.5,0L10.74,5H13l1.17,1.88Z"/></svg>