<svg id="Layer_1" data-name="Layer 1" xmlns="http://www.w3.org/2000/svg" viewBox="0 0 15 15"><g id="outline"><path d="M7.71,8.84a.23.23,0,0,0-.24-.23.23.23,0,0,0-.23.23.44.44,0,0,1-.15.32.87.87,0,0,0,0,1.24.44.44,0,0,1,.15.32.23.23,0,0,0,.23.23.23.23,0,0,0,.24-.23.86.86,0,0,0-.27-.62.44.44,0,0,1-.15-.32.4.4,0,0,1,.15-.31A.89.89,0,0,0,7.71,8.84Z"/><path d="M9.11,8.84a.23.23,0,0,0-.23-.23.23.23,0,0,0-.24.23.43.43,0,0,1-.14.32.85.85,0,0,0,0,1.24.43.43,0,0,1,.14.32.23.23,0,0,0,.24.23.23.23,0,0,0,.23-.23.86.86,0,0,0-.26-.62.44.44,0,0,1-.15-.32.4.4,0,0,1,.15-.31A.88.88,0,0,0,9.11,8.84Z"/><path d="M6.3,8.84a.24.24,0,0,0-.47,0,.44.44,0,0,1-.15.32.87.87,0,0,0,0,1.24.44.44,0,0,1,.15.32.24.24,0,0,0,.47,0A.86.86,0,0,0,6,10.1a.41.41,0,0,1-.15-.32A.37.37,0,0,1,6,9.47.88.88,0,0,0,6.3,8.84Z"/><path d="M12.66,4.39H1.88a.24.24,0,0,0-.24.23v8.44a.24.24,0,0,0,.24.24H12.66a.23.23,0,0,0,.23-.24V4.62A.23.23,0,0,0,12.66,4.39Zm-.24,8.44H2.11v-8H12.42Z"/><path d="M13,.64H1.52A1.3,1.3,0,0,0,.23,1.93V13.41A1.29,1.29,0,0,0,1.52,14.7H13a1.29,1.29,0,0,0,1.29-1.29V1.93A1.29,1.29,0,0,0,13,.64ZM.7,1.93a.82.82,0,0,1,.82-.82H13a.82.82,0,0,1,.82.82V3H.7ZM13,14.23H1.52a.82.82,0,0,1-.82-.82v-10H13.83v10A.82.82,0,0,1,13,14.23Z"/><path d="M8.91,1.34H5.62a.24.24,0,0,0-.23.24v.94a.24.24,0,0,0,.23.23H8.91a.23.23,0,0,0,.23-.23V1.58A.23.23,0,0,0,8.91,1.34Zm-.24.94H5.86V1.81H8.67Z"/><path d="M3.28,7.67h8A.7.7,0,0,0,12,7a.68.68,0,0,0-.47-.66V5.56a.23.23,0,0,0-.23-.23h-.94a.23.23,0,0,0-.23.23v.71H4.45V5.56a.23.23,0,0,0-.23-.23H3.28a.23.23,0,0,0-.23.23v.75a.7.7,0,0,0,.23,1.36ZM10.55,5.8H11v.47h-.47Zm-7,0H4v.47H3.52Zm-.24.93h8a.23.23,0,0,1,.23.24.23.23,0,0,1-.23.23h-8A.23.23,0,0,1,3.05,7,.23.23,0,0,1,3.28,6.73Z"/><path d="M4.22,1.34a.71.71,0,1,0,.7.71A.7.7,0,0,0,4.22,1.34Zm0,.94A.23.23,0,0,1,4,2.05a.24.24,0,0,1,.24-.24.23.23,0,0,1,.23.24A.23.23,0,0,1,4.22,2.28Z"/><path d="M2.34,1.34a.71.71,0,1,0,.71.71A.71.71,0,0,0,2.34,1.34Zm0,.94a.23.23,0,0,1-.23-.23.23.23,0,0,1,.23-.24.24.24,0,0,1,.24.24A.23.23,0,0,1,2.34,2.28Z"/><path d="M12.19,1.34a.71.71,0,1,0,0,1.41.71.71,0,0,0,0-1.41Zm0,.94A.23.23,0,0,1,12,2.05a.24.24,0,0,1,.24-.24.23.23,0,0,1,.23.24A.23.23,0,0,1,12.19,2.28Z"/><path d="M10.31,1.34a.71.71,0,1,0,.71.71A.71.71,0,0,0,10.31,1.34Zm0,.94a.23.23,0,0,1-.23-.23.23.23,0,0,1,.23-.24.24.24,0,0,1,.24.24A.23.23,0,0,1,10.31,2.28Z"/><path d="M9.37,11.89H5.16a.24.24,0,1,0,0,.47H9.37a.24.24,0,1,0,0-.47Z"/><path d="M10.55,11.89h-.24a.24.24,0,0,0,0,.47h.24a.24.24,0,0,0,0-.47Z"/></g></svg>