<?xml version="1.0" encoding="UTF-8"?>
<svg width="219px" height="43px" viewBox="0 0 219 43" version="1.1" xmlns="http://www.w3.org/2000/svg" xmlns:xlink="http://www.w3.org/1999/xlink">
    <!-- Generator: Sketch 60.1 (88133) - https://sketch.com -->
    <title>Group 4</title>
    <desc>Created with Sketch.</desc>
    <g id="design" stroke="none" stroke-width="1" fill="none" fill-rule="evenodd">
        <g id="100-main" transform="translate(-20.000000, -17.000000)">
            <g id="top-menu">
                <g id="menu" transform="translate(20.000000, 17.000000)">
                    <g id="Group-4" transform="translate(0.000000, 0.994000)">
                        <path d="M73.688,13.006 C74.612,13.006 75.467,12.883 76.253,12.637 C77.039,12.391 77.717,12.019 78.287,11.521 C78.857,11.023 79.304,10.405 79.628,9.667 C79.952,8.929 80.114,8.062 80.114,7.066 C80.114,6.022 79.955,5.116 79.637,4.348 C79.319,3.58 78.875,2.95 78.305,2.458 C77.735,1.966 77.057,1.6 76.271,1.36 C75.485,1.12 74.63,1 73.706,1 L73.706,1 L69.17,1 L69.17,13.006 L73.688,13.006 Z M73.544,10.594 L71.888,10.594 L71.888,3.394 L73.544,3.394 C74.192,3.394 74.75,3.481 75.218,3.655 C75.686,3.829 76.073,4.075 76.379,4.393 C76.685,4.711 76.913,5.095 77.063,5.545 C77.213,5.995 77.288,6.496 77.288,7.048 C77.288,8.152 76.964,9.019 76.316,9.649 C75.668,10.279 74.744,10.594 73.544,10.594 L73.544,10.594 Z M84.452,13.006 L84.452,8.83 C84.452,8.158 84.641,7.639 85.019,7.273 C85.397,6.907 85.892,6.724 86.504,6.724 C86.864,6.724 87.176,6.766 87.44,6.85 L87.44,6.85 L87.854,4.564 C87.698,4.504 87.539,4.462 87.377,4.438 C87.215,4.414 87.02,4.402 86.792,4.402 C86.192,4.402 85.703,4.534 85.325,4.798 C84.947,5.062 84.65,5.338 84.434,5.626 L84.434,5.626 L84.344,4.564 L81.86,4.564 L81.86,13.006 L84.452,13.006 Z M91.688,3.322 L91.688,1 L88.916,1 L88.916,3.322 L91.688,3.322 Z M91.598,13.006 L91.598,4.564 L89.006,4.564 L89.006,13.006 L91.598,13.006 Z M98.726,13.006 L102.344,4.564 L99.518,4.564 L97.592,10.108 L95.594,4.564 L92.714,4.564 L96.278,13.006 L98.726,13.006 Z M107.654,13.294 C108.194,13.294 108.674,13.243 109.094,13.141 C109.514,13.039 109.877,12.922 110.183,12.79 C110.489,12.658 110.738,12.523 110.93,12.385 C111.122,12.247 111.266,12.148 111.362,12.088 L111.362,12.088 L110.3,10.45 C110.108,10.594 109.802,10.765 109.382,10.963 C108.962,11.161 108.416,11.26 107.744,11.26 C107.06,11.26 106.523,11.089 106.133,10.747 C105.743,10.405 105.542,10.006 105.53,9.55 L105.53,9.55 L111.542,9.55 L111.542,9.118 C111.542,8.41 111.452,7.759 111.272,7.165 C111.092,6.571 110.825,6.061 110.471,5.635 C110.117,5.209 109.682,4.876 109.166,4.636 C108.65,4.396 108.05,4.276 107.366,4.276 C106.682,4.276 106.07,4.399 105.53,4.645 C104.99,4.891 104.534,5.218 104.162,5.626 C103.79,6.034 103.505,6.511 103.307,7.057 C103.109,7.603 103.01,8.17 103.01,8.758 C103.01,9.43 103.115,10.045 103.325,10.603 C103.535,11.161 103.841,11.638 104.243,12.034 C104.645,12.43 105.134,12.739 105.71,12.961 C106.286,13.183 106.934,13.294 107.654,13.294 Z M109.094,7.894 L105.53,7.894 C105.53,7.714 105.569,7.531 105.647,7.345 C105.725,7.159 105.839,6.988 105.989,6.832 C106.139,6.676 106.328,6.547 106.556,6.445 C106.784,6.343 107.048,6.292 107.348,6.292 C107.648,6.292 107.906,6.343 108.122,6.445 C108.338,6.547 108.518,6.676 108.662,6.832 C108.806,6.988 108.914,7.159 108.986,7.345 C109.058,7.531 109.094,7.714 109.094,7.894 L109.094,7.894 Z M115.61,13.006 L115.61,8.47 C115.61,8.218 115.646,7.981 115.718,7.759 C115.79,7.537 115.898,7.342 116.042,7.174 C116.186,7.006 116.366,6.871 116.582,6.769 C116.798,6.667 117.05,6.616 117.338,6.616 C117.758,6.616 118.085,6.754 118.319,7.03 C118.553,7.306 118.67,7.678 118.67,8.146 L118.67,8.146 L118.67,13.006 L121.262,13.006 L121.262,7.786 C121.262,6.658 120.977,5.806 120.407,5.23 C119.837,4.654 119.066,4.366 118.094,4.366 C117.602,4.366 117.131,4.468 116.681,4.672 C116.231,4.876 115.868,5.146 115.592,5.482 L115.592,5.482 L115.52,4.564 L113.036,4.564 L113.036,13.006 L115.61,13.006 Z M71.888,27.006 L71.888,22.074 L77.09,22.074 L77.09,27.006 L79.808,27.006 L79.808,15 L77.09,15 L77.09,19.608 L71.888,19.608 L71.888,15 L69.17,15 L69.17,27.006 L71.888,27.006 Z M86.09,27.294 C86.762,27.294 87.374,27.174 87.926,26.934 C88.478,26.694 88.952,26.37 89.348,25.962 C89.744,25.554 90.053,25.077 90.275,24.531 C90.497,23.985 90.608,23.4 90.608,22.776 C90.608,22.152 90.497,21.567 90.275,21.021 C90.053,20.475 89.744,19.998 89.348,19.59 C88.952,19.182 88.478,18.861 87.926,18.627 C87.374,18.393 86.762,18.276 86.09,18.276 C85.418,18.276 84.803,18.393 84.245,18.627 C83.687,18.861 83.21,19.182 82.814,19.59 C82.418,19.998 82.109,20.475 81.887,21.021 C81.665,21.567 81.554,22.152 81.554,22.776 C81.554,23.4 81.665,23.985 81.887,24.531 C82.109,25.077 82.418,25.554 82.814,25.962 C83.21,26.37 83.687,26.694 84.245,26.934 C84.803,27.174 85.418,27.294 86.09,27.294 Z M86.09,25.044 C85.766,25.044 85.475,24.981 85.217,24.855 C84.959,24.729 84.746,24.558 84.578,24.342 C84.41,24.126 84.281,23.883 84.191,23.613 C84.101,23.343 84.056,23.064 84.056,22.776 C84.056,22.488 84.101,22.209 84.191,21.939 C84.281,21.669 84.41,21.429 84.578,21.219 C84.746,21.009 84.959,20.841 85.217,20.715 C85.475,20.589 85.766,20.526 86.09,20.526 C86.414,20.526 86.702,20.589 86.954,20.715 C87.206,20.841 87.419,21.009 87.593,21.219 C87.767,21.429 87.896,21.669 87.98,21.939 C88.064,22.209 88.106,22.488 88.106,22.776 C88.106,23.064 88.064,23.343 87.98,23.613 C87.896,23.883 87.767,24.126 87.593,24.342 C87.419,24.558 87.206,24.729 86.954,24.855 C86.702,24.981 86.414,25.044 86.09,25.044 Z M94.748,27.006 L94.748,15 L92.156,15 L92.156,27.006 L94.748,27.006 Z M99.41,17.322 L99.41,15 L96.638,15 L96.638,17.322 L99.41,17.322 Z M99.32,27.006 L99.32,18.564 L96.728,18.564 L96.728,27.006 L99.32,27.006 Z M104.612,27.258 C105.14,27.258 105.611,27.153 106.025,26.943 C106.439,26.733 106.778,26.472 107.042,26.16 L107.042,26.16 L107.15,27.006 L109.562,27.006 L109.562,15 L106.988,15 L106.988,18.672 C106.748,18.588 106.514,18.519 106.286,18.465 C106.058,18.411 105.74,18.384 105.332,18.384 C104.828,18.384 104.315,18.477 103.793,18.663 C103.271,18.849 102.797,19.128 102.371,19.5 C101.945,19.872 101.597,20.343 101.327,20.913 C101.057,21.483 100.922,22.146 100.922,22.902 C100.922,23.574 101.018,24.177 101.21,24.711 C101.402,25.245 101.663,25.701 101.993,26.079 C102.323,26.457 102.713,26.748 103.163,26.952 C103.613,27.156 104.096,27.258 104.612,27.258 Z M105.332,25.044 C104.732,25.044 104.282,24.849 103.982,24.459 C103.682,24.069 103.532,23.568 103.532,22.956 C103.532,22.26 103.715,21.69 104.081,21.246 C104.447,20.802 104.96,20.58 105.62,20.58 C105.932,20.58 106.193,20.604 106.403,20.652 C106.613,20.7 106.808,20.778 106.988,20.886 L106.988,20.886 L106.988,23.19 C106.988,23.43 106.958,23.664 106.898,23.892 C106.838,24.12 106.739,24.318 106.601,24.486 C106.463,24.654 106.289,24.789 106.079,24.891 C105.869,24.993 105.62,25.044 105.332,25.044 Z M113.81,27.258 C114.35,27.258 114.839,27.168 115.277,26.988 C115.715,26.808 116.078,26.55 116.366,26.214 L116.366,26.214 L116.438,27.006 L118.868,27.006 L118.868,22.092 C118.868,20.928 118.562,20.001 117.95,19.311 C117.338,18.621 116.39,18.276 115.106,18.276 C114.602,18.276 114.155,18.309 113.765,18.375 C113.375,18.441 113.024,18.528 112.712,18.636 C112.4,18.744 112.13,18.864 111.902,18.996 C111.674,19.128 111.47,19.26 111.29,19.392 L111.29,19.392 L112.352,20.976 C112.616,20.796 112.937,20.634 113.315,20.49 C113.693,20.346 114.17,20.274 114.746,20.274 C114.962,20.274 115.166,20.295 115.358,20.337 C115.55,20.379 115.721,20.451 115.871,20.553 C116.021,20.655 116.141,20.781 116.231,20.931 C116.321,21.081 116.366,21.264 116.366,21.48 L116.366,21.48 L116.366,21.66 C116.27,21.636 116.069,21.618 115.763,21.606 C115.457,21.594 115.154,21.588 114.854,21.588 C114.302,21.588 113.789,21.654 113.315,21.786 C112.841,21.918 112.43,22.113 112.082,22.371 C111.734,22.629 111.461,22.95 111.263,23.334 C111.065,23.718 110.966,24.156 110.966,24.648 C110.966,25.152 111.059,25.572 111.245,25.908 C111.431,26.244 111.665,26.511 111.947,26.709 C112.229,26.907 112.535,27.048 112.865,27.132 C113.195,27.216 113.51,27.258 113.81,27.258 Z M114.728,25.422 C113.888,25.422 113.468,25.074 113.468,24.378 C113.468,24.006 113.618,23.718 113.918,23.514 C114.218,23.31 114.728,23.208 115.448,23.208 C115.664,23.208 115.856,23.217 116.024,23.235 C116.192,23.253 116.306,23.268 116.366,23.28 L116.366,23.28 L116.366,23.964 C116.366,24.204 116.318,24.414 116.222,24.594 C116.126,24.774 116.003,24.924 115.853,25.044 C115.703,25.164 115.529,25.257 115.331,25.323 C115.133,25.389 114.932,25.422 114.728,25.422 Z M122.432,30.822 C123.02,30.822 123.509,30.708 123.899,30.48 C124.289,30.252 124.619,29.955 124.889,29.589 C125.159,29.223 125.387,28.809 125.573,28.347 C125.759,27.885 125.948,27.42 126.14,26.952 L126.14,26.952 L129.596,18.564 L126.842,18.564 L124.934,23.892 L122.828,18.564 L119.876,18.564 L123.728,26.916 L123.476,27.6 C123.308,28.02 123.131,28.317 122.945,28.491 C122.759,28.665 122.528,28.752 122.252,28.752 C122.048,28.752 121.859,28.71 121.685,28.626 C121.511,28.542 121.352,28.446 121.208,28.338 L121.208,28.338 L120.164,30.12 C120.476,30.348 120.818,30.522 121.19,30.642 C121.562,30.762 121.976,30.822 122.432,30.822 Z M71.888,41.006 L71.888,36.074 L77.09,36.074 L77.09,41.006 L79.808,41.006 L79.808,29 L77.09,29 L77.09,33.608 L71.888,33.608 L71.888,29 L69.17,29 L69.17,41.006 L71.888,41.006 Z M86.09,41.294 C86.762,41.294 87.374,41.174 87.926,40.934 C88.478,40.694 88.952,40.37 89.348,39.962 C89.744,39.554 90.053,39.077 90.275,38.531 C90.497,37.985 90.608,37.4 90.608,36.776 C90.608,36.152 90.497,35.567 90.275,35.021 C90.053,34.475 89.744,33.998 89.348,33.59 C88.952,33.182 88.478,32.861 87.926,32.627 C87.374,32.393 86.762,32.276 86.09,32.276 C85.418,32.276 84.803,32.393 84.245,32.627 C83.687,32.861 83.21,33.182 82.814,33.59 C82.418,33.998 82.109,34.475 81.887,35.021 C81.665,35.567 81.554,36.152 81.554,36.776 C81.554,37.4 81.665,37.985 81.887,38.531 C82.109,39.077 82.418,39.554 82.814,39.962 C83.21,40.37 83.687,40.694 84.245,40.934 C84.803,41.174 85.418,41.294 86.09,41.294 Z M86.09,39.044 C85.766,39.044 85.475,38.981 85.217,38.855 C84.959,38.729 84.746,38.558 84.578,38.342 C84.41,38.126 84.281,37.883 84.191,37.613 C84.101,37.343 84.056,37.064 84.056,36.776 C84.056,36.488 84.101,36.209 84.191,35.939 C84.281,35.669 84.41,35.429 84.578,35.219 C84.746,35.009 84.959,34.841 85.217,34.715 C85.475,34.589 85.766,34.526 86.09,34.526 C86.414,34.526 86.702,34.589 86.954,34.715 C87.206,34.841 87.419,35.009 87.593,35.219 C87.767,35.429 87.896,35.669 87.98,35.939 C88.064,36.209 88.106,36.488 88.106,36.776 C88.106,37.064 88.064,37.343 87.98,37.613 C87.896,37.883 87.767,38.126 87.593,38.342 C87.419,38.558 87.206,38.729 86.954,38.855 C86.702,38.981 86.414,39.044 86.09,39.044 Z M94.748,41.006 L94.748,36.47 C94.748,35.93 94.901,35.486 95.207,35.138 C95.513,34.79 95.912,34.616 96.404,34.616 C96.848,34.616 97.181,34.754 97.403,35.03 C97.625,35.306 97.736,35.696 97.736,36.2 L97.736,36.2 L97.736,41.006 L100.238,41.006 L100.238,36.47 C100.238,35.93 100.388,35.486 100.688,35.138 C100.988,34.79 101.39,34.616 101.894,34.616 C102.338,34.616 102.671,34.754 102.893,35.03 C103.115,35.306 103.226,35.696 103.226,36.2 L103.226,36.2 L103.226,41.006 L105.818,41.006 L105.818,35.786 C105.818,34.73 105.533,33.896 104.963,33.284 C104.393,32.672 103.568,32.366 102.488,32.366 C101.948,32.366 101.429,32.468 100.931,32.672 C100.433,32.876 100.01,33.164 99.662,33.536 C99.566,33.404 99.443,33.269 99.293,33.131 C99.143,32.993 98.969,32.867 98.771,32.753 C98.573,32.639 98.342,32.546 98.078,32.474 C97.814,32.402 97.514,32.366 97.178,32.366 C96.626,32.366 96.146,32.474 95.738,32.69 C95.33,32.906 94.994,33.176 94.73,33.5 L94.73,33.5 L94.64,32.564 L92.156,32.564 L92.156,41.006 L94.748,41.006 Z M111.956,41.294 C112.496,41.294 112.976,41.243 113.396,41.141 C113.816,41.039 114.179,40.922 114.485,40.79 C114.791,40.658 115.04,40.523 115.232,40.385 C115.424,40.247 115.568,40.148 115.664,40.088 L115.664,40.088 L114.602,38.45 C114.41,38.594 114.104,38.765 113.684,38.963 C113.264,39.161 112.718,39.26 112.046,39.26 C111.362,39.26 110.825,39.089 110.435,38.747 C110.045,38.405 109.844,38.006 109.832,37.55 L109.832,37.55 L115.844,37.55 L115.844,37.118 C115.844,36.41 115.754,35.759 115.574,35.165 C115.394,34.571 115.127,34.061 114.773,33.635 C114.419,33.209 113.984,32.876 113.468,32.636 C112.952,32.396 112.352,32.276 111.668,32.276 C110.984,32.276 110.372,32.399 109.832,32.645 C109.292,32.891 108.836,33.218 108.464,33.626 C108.092,34.034 107.807,34.511 107.609,35.057 C107.411,35.603 107.312,36.17 107.312,36.758 C107.312,37.43 107.417,38.045 107.627,38.603 C107.837,39.161 108.143,39.638 108.545,40.034 C108.947,40.43 109.436,40.739 110.012,40.961 C110.588,41.183 111.236,41.294 111.956,41.294 Z M113.396,35.894 L109.832,35.894 C109.832,35.714 109.871,35.531 109.949,35.345 C110.027,35.159 110.141,34.988 110.291,34.832 C110.441,34.676 110.63,34.547 110.858,34.445 C111.086,34.343 111.35,34.292 111.65,34.292 C111.95,34.292 112.208,34.343 112.424,34.445 C112.64,34.547 112.82,34.676 112.964,34.832 C113.108,34.988 113.216,35.159 113.288,35.345 C113.36,35.531 113.396,35.714 113.396,35.894 L113.396,35.894 Z M120.686,41.294 C121.154,41.294 121.613,41.24 122.063,41.132 C122.513,41.024 122.915,40.859 123.269,40.637 C123.623,40.415 123.905,40.136 124.115,39.8 C124.325,39.464 124.43,39.062 124.43,38.594 C124.43,37.898 124.235,37.34 123.845,36.92 C123.455,36.5 122.828,36.17 121.964,35.93 C121.328,35.762 120.824,35.612 120.452,35.48 C120.08,35.348 119.894,35.144 119.894,34.868 C119.894,34.676 119.984,34.523 120.164,34.409 C120.344,34.295 120.632,34.238 121.028,34.238 C121.472,34.238 121.871,34.31 122.225,34.454 C122.579,34.598 122.894,34.76 123.17,34.94 L123.17,34.94 L124.268,33.23 C123.812,32.918 123.314,32.681 122.774,32.519 C122.234,32.357 121.604,32.276 120.884,32.276 C120.38,32.276 119.909,32.339 119.471,32.465 C119.033,32.591 118.655,32.771 118.337,33.005 C118.019,33.239 117.77,33.515 117.59,33.833 C117.41,34.151 117.32,34.508 117.32,34.904 C117.32,35.288 117.395,35.624 117.545,35.912 C117.695,36.2 117.893,36.446 118.139,36.65 C118.385,36.854 118.667,37.025 118.985,37.163 C119.303,37.301 119.624,37.412 119.948,37.496 C120.344,37.604 120.671,37.7 120.929,37.784 C121.187,37.868 121.388,37.949 121.532,38.027 C121.676,38.105 121.775,38.189 121.829,38.279 C121.883,38.369 121.91,38.468 121.91,38.576 C121.91,38.852 121.784,39.038 121.532,39.134 C121.28,39.23 120.962,39.278 120.578,39.278 C120.158,39.278 119.723,39.194 119.273,39.026 C118.823,38.858 118.46,38.648 118.184,38.396 L118.184,38.396 L116.906,40.052 C117.326,40.472 117.872,40.784 118.544,40.988 C119.216,41.192 119.93,41.294 120.686,41.294 Z" id="DrivenHolidayHomes" fill="#141414" fill-rule="nonzero"></path>
                        <g id="logo-modified" transform="translate(0.000000, 4.006000)" fill="#000000">
                            <g stroke-width="1" id="logoBlack">
                                <g>
                                    <polygon id="Fill-4" points="21 2.2 2.45454545 2.2 2.45454545 30.8 13.9090909 30.8 13.9090909 33 0 33 0 0 21 0"></polygon>
                                    <polygon id="Fill-5" points="48 0 48 33 27 33 27 30.8 45.8181818 30.8 45.8181818 2.2 34.3636364 2.2 34.3636364 0"></polygon>
                                </g>
                            </g>
                            <path d="M7.90909091,11 L12.0327273,11 C12.8727315,11 13.6499964,11.1099989 14.3645455,11.33 C15.0790945,11.5500011 15.695452,11.8854977 16.2136364,12.3365 C16.7318208,12.7875023 17.1354531,13.3649965 17.4245455,14.069 C17.7136378,14.7730035 17.8581818,15.6034952 17.8581818,16.5605 C17.8581818,17.4735046 17.7109106,18.2682466 17.4163636,18.94475 C17.1218167,19.6212534 16.7154571,20.1877477 16.1972727,20.64425 C15.6790883,21.1007523 15.0627308,21.4417489 14.3481818,21.66725 C13.6336328,21.8927511 12.8563678,22.0055 12.0163636,22.0055 L7.90909091,22.0055 L7.90909091,11 Z M11.8854545,19.7945 C12.9763691,19.7945 13.8163607,19.5057529 14.4054545,18.92825 C14.9945484,18.3507471 15.2890909,17.5560051 15.2890909,16.544 C15.2890909,16.0379975 15.2209098,15.5787521 15.0845455,15.16625 C14.9481811,14.7537479 14.7409105,14.4017515 14.4627273,14.11025 C14.1845441,13.8187485 13.8327294,13.5932508 13.4072727,13.43375 C12.9818161,13.2742492 12.4745484,13.1945 11.8854545,13.1945 L10.38,13.1945 L10.38,19.7945 L11.8854545,19.7945 Z M19.2872727,11 L21.7581818,11 L21.7581818,15.224 L26.4872727,15.224 L26.4872727,0 L28.9581818,0 L28.9581818,22.0055 L26.4872727,22.0055 L26.4872727,17.4845 L21.7581818,17.4845 L21.7581818,33.0055 L19.2872727,33.0055 L19.2872727,11 Z M30.8127273,11 L33.2836364,11 L33.2836364,15.224 L38.0127273,15.224 L38.0127273,11 L40.4836364,11 L40.4836364,22.0055 L38.0127273,22.0055 L38.0127273,17.4845 L33.2836364,17.4845 L33.2836364,22.0055 L30.8127273,22.0055 L30.8127273,11 Z" id="DHH"></path>
                        </g>
                        <path d="M143.22,12.006 C143.844,12.006 144.432,11.952 144.984,11.844 C145.536,11.736 146.013,11.55 146.415,11.286 C146.817,11.022 147.135,10.677 147.369,10.251 C147.603,9.825 147.72,9.288 147.72,8.64 C147.72,8.1 147.63,7.647 147.45,7.281 C147.27,6.915 147.048,6.618 146.784,6.39 C146.52,6.162 146.235,5.991 145.929,5.877 C145.623,5.763 145.344,5.688 145.092,5.652 C145.284,5.628 145.497,5.55 145.731,5.418 C145.965,5.286 146.181,5.112 146.379,4.896 C146.577,4.68 146.745,4.416 146.883,4.104 C147.021,3.792 147.09,3.444 147.09,3.06 C147.09,2.64 147.015,2.244 146.865,1.872 C146.715,1.5 146.49,1.176 146.19,0.9 C145.89,0.624 145.512,0.405 145.056,0.243 C144.6,0.081 144.06,-1.00541797e-12 143.436,-1.00541797e-12 L143.436,-1.00541797e-12 L139.368,-1.00541797e-12 L139.368,12.006 L143.22,12.006 Z M143.184,5.004 L141.042,5.004 L141.042,1.494 L143.184,1.494 C143.448,1.494 143.712,1.515 143.976,1.557 C144.24,1.599 144.48,1.683 144.696,1.809 C144.912,1.935 145.086,2.109 145.218,2.331 C145.35,2.553 145.416,2.844 145.416,3.204 C145.416,3.528 145.35,3.804 145.218,4.032 C145.086,4.26 144.912,4.446 144.696,4.59 C144.48,4.734 144.24,4.839 143.976,4.905 C143.712,4.971 143.448,5.004 143.184,5.004 L143.184,5.004 Z M143.13,10.512 L141.042,10.512 L141.042,6.48 L143.238,6.48 C143.538,6.48 143.85,6.507 144.174,6.561 C144.498,6.615 144.795,6.72 145.065,6.876 C145.335,7.032 145.557,7.242 145.731,7.506 C145.905,7.77 145.992,8.118 145.992,8.55 C145.992,9.006 145.902,9.363 145.722,9.621 C145.542,9.879 145.311,10.074 145.029,10.206 C144.747,10.338 144.438,10.422 144.102,10.458 C143.766,10.494 143.442,10.512 143.13,10.512 L143.13,10.512 Z M153.696,12.258 C154.224,12.258 154.695,12.201 155.109,12.087 C155.523,11.973 155.883,11.838 156.189,11.682 C156.495,11.526 156.744,11.364 156.936,11.196 C157.128,11.028 157.272,10.89 157.368,10.782 L157.368,10.782 L156.45,9.81 C156.246,10.038 155.916,10.272 155.46,10.512 C155.004,10.752 154.422,10.872 153.714,10.872 C153.354,10.872 153.012,10.806 152.688,10.674 C152.364,10.542 152.076,10.362 151.824,10.134 C151.572,9.906 151.371,9.636 151.221,9.324 C151.071,9.012 150.99,8.67 150.978,8.298 L150.978,8.298 L157.584,8.298 C157.584,7.662 157.506,7.05 157.35,6.462 C157.194,5.874 156.951,5.352 156.621,4.896 C156.291,4.44 155.868,4.074 155.352,3.798 C154.836,3.522 154.218,3.384 153.498,3.384 C152.886,3.384 152.325,3.498 151.815,3.726 C151.305,3.954 150.864,4.263 150.492,4.653 C150.12,5.043 149.832,5.505 149.628,6.039 C149.424,6.573 149.322,7.146 149.322,7.758 C149.322,8.43 149.427,9.042 149.637,9.594 C149.847,10.146 150.144,10.62 150.528,11.016 C150.912,11.412 151.374,11.718 151.914,11.934 C152.454,12.15 153.048,12.258 153.696,12.258 Z M155.91,7.092 L150.978,7.092 C150.99,6.792 151.056,6.501 151.176,6.219 C151.296,5.937 151.464,5.688 151.68,5.472 C151.896,5.256 152.157,5.082 152.463,4.95 C152.769,4.818 153.114,4.752 153.498,4.752 C154.242,4.752 154.818,4.98 155.226,5.436 C155.634,5.892 155.862,6.444 155.91,7.092 L155.91,7.092 Z M162.498,12.258 C162.954,12.258 163.392,12.204 163.812,12.096 C164.232,11.988 164.604,11.826 164.928,11.61 C165.252,11.394 165.51,11.127 165.702,10.809 C165.894,10.491 165.99,10.122 165.99,9.702 C165.99,9.294 165.915,8.946 165.765,8.658 C165.615,8.37 165.411,8.127 165.153,7.929 C164.895,7.731 164.595,7.569 164.253,7.443 C163.911,7.317 163.542,7.206 163.146,7.11 C162.474,6.954 161.931,6.789 161.517,6.615 C161.103,6.441 160.896,6.174 160.896,5.814 C160.896,5.43 161.052,5.154 161.364,4.986 C161.676,4.818 162.09,4.734 162.606,4.734 C163.11,4.734 163.551,4.812 163.929,4.968 C164.307,5.124 164.622,5.316 164.874,5.544 L164.874,5.544 L165.756,4.428 C165.372,4.092 164.925,3.831 164.415,3.645 C163.905,3.459 163.296,3.366 162.588,3.366 C162.168,3.366 161.763,3.42 161.373,3.528 C160.983,3.636 160.632,3.795 160.32,4.005 C160.008,4.215 159.759,4.473 159.573,4.779 C159.387,5.085 159.294,5.442 159.294,5.85 C159.294,6.246 159.372,6.585 159.528,6.867 C159.684,7.149 159.888,7.389 160.14,7.587 C160.392,7.785 160.677,7.944 160.995,8.064 C161.313,8.184 161.634,8.28 161.958,8.352 C162.414,8.46 162.795,8.559 163.101,8.649 C163.407,8.739 163.653,8.838 163.839,8.946 C164.025,9.054 164.157,9.177 164.235,9.315 C164.313,9.453 164.352,9.618 164.352,9.81 C164.352,10.182 164.172,10.455 163.812,10.629 C163.452,10.803 163.002,10.89 162.462,10.89 C161.91,10.89 161.424,10.8 161.004,10.62 C160.584,10.44 160.224,10.2 159.924,9.9 L159.924,9.9 L158.934,10.98 C159.726,11.832 160.914,12.258 162.498,12.258 Z M171.174,12.24 C171.678,12.24 172.113,12.165 172.479,12.015 C172.845,11.865 173.202,11.622 173.55,11.286 L173.55,11.286 L172.812,10.296 C172.608,10.488 172.404,10.632 172.2,10.728 C171.996,10.824 171.738,10.872 171.426,10.872 C171.042,10.872 170.745,10.746 170.535,10.494 C170.325,10.242 170.22,9.78 170.22,9.108 L170.22,9.108 L170.22,4.986 L172.668,4.986 L172.668,3.636 L170.22,3.636 L170.22,0.9 L168.6,0.9 L168.6,3.636 L167.088,3.636 L167.088,4.986 L168.6,4.986 L168.6,9.27 C168.6,10.29 168.807,11.04 169.221,11.52 C169.635,12 170.286,12.24 171.174,12.24 Z M141.078,26.006 L141.078,21.29 L143.256,21.29 C143.844,21.29 144.387,21.212 144.885,21.056 C145.383,20.9 145.812,20.669 146.172,20.363 C146.532,20.057 146.814,19.676 147.018,19.22 C147.222,18.764 147.324,18.236 147.324,17.636 C147.324,17.228 147.261,16.808 147.135,16.376 C147.009,15.944 146.787,15.554 146.469,15.206 C146.151,14.858 145.725,14.57 145.191,14.342 C144.657,14.114 143.982,14 143.166,14 L143.166,14 L139.368,14 L139.368,26.006 L141.078,26.006 Z M143.238,19.814 L141.078,19.814 L141.078,15.476 L143.238,15.476 C143.958,15.476 144.525,15.671 144.939,16.061 C145.353,16.451 145.56,16.988 145.56,17.672 C145.56,18.344 145.359,18.869 144.957,19.247 C144.555,19.625 143.982,19.814 143.238,19.814 L143.238,19.814 Z M150.924,26.006 L150.924,14 L149.304,14 L149.304,26.006 L150.924,26.006 Z M155.586,26.24 C156.126,26.24 156.651,26.138 157.161,25.934 C157.671,25.73 158.082,25.418 158.394,24.998 L158.394,24.998 L158.43,26.006 L159.942,26.006 C159.93,25.802 159.924,25.553 159.924,25.259 L159.924,25.259 L159.924,20.39 C159.924,19.43 159.615,18.689 158.997,18.167 C158.379,17.645 157.53,17.384 156.45,17.384 C155.994,17.384 155.592,17.417 155.244,17.483 C154.896,17.549 154.584,17.633 154.308,17.735 C154.032,17.837 153.792,17.948 153.588,18.068 C153.384,18.188 153.21,18.308 153.066,18.428 L153.066,18.428 L153.822,19.526 C154.074,19.346 154.386,19.169 154.758,18.995 C155.13,18.821 155.634,18.734 156.27,18.734 C156.918,18.734 157.431,18.869 157.809,19.139 C158.187,19.409 158.376,19.856 158.376,20.48 L158.376,20.48 L158.376,20.786 C158.316,20.774 158.214,20.762 158.07,20.75 C157.926,20.738 157.758,20.726 157.566,20.714 C157.374,20.702 157.17,20.69 156.954,20.678 C156.738,20.666 156.534,20.66 156.342,20.66 C155.154,20.66 154.245,20.93 153.615,21.47 C152.985,22.01 152.67,22.73 152.67,23.63 C152.67,24.11 152.757,24.515 152.931,24.845 C153.105,25.175 153.333,25.445 153.615,25.655 C153.897,25.865 154.209,26.015 154.551,26.105 C154.893,26.195 155.238,26.24 155.586,26.24 Z M156.018,24.962 C155.466,24.962 155.034,24.845 154.722,24.611 C154.41,24.377 154.254,24.032 154.254,23.576 C154.254,23.396 154.284,23.207 154.344,23.009 C154.404,22.811 154.515,22.631 154.677,22.469 C154.839,22.307 155.061,22.172 155.343,22.064 C155.625,21.956 155.994,21.902 156.45,21.902 C156.642,21.902 156.84,21.908 157.044,21.92 C157.248,21.932 157.44,21.944 157.62,21.956 C157.8,21.968 157.959,21.983 158.097,22.001 C158.235,22.019 158.328,22.034 158.376,22.046 L158.376,22.046 L158.376,23 C158.376,23.252 158.31,23.498 158.178,23.738 C158.046,23.978 157.872,24.188 157.656,24.368 C157.44,24.548 157.191,24.692 156.909,24.8 C156.627,24.908 156.33,24.962 156.018,24.962 Z M166.134,26.258 C166.854,26.258 167.487,26.129 168.033,25.871 C168.579,25.613 169.038,25.274 169.41,24.854 L169.41,24.854 L168.42,23.81 C168.168,24.122 167.847,24.371 167.457,24.557 C167.067,24.743 166.626,24.836 166.134,24.836 C165.702,24.836 165.315,24.752 164.973,24.584 C164.631,24.416 164.343,24.191 164.109,23.909 C163.875,23.627 163.695,23.303 163.569,22.937 C163.443,22.571 163.38,22.196 163.38,21.812 C163.38,21.416 163.443,21.035 163.569,20.669 C163.695,20.303 163.875,19.979 164.109,19.697 C164.343,19.415 164.631,19.193 164.973,19.031 C165.315,18.869 165.702,18.788 166.134,18.788 C166.626,18.788 167.052,18.878 167.412,19.058 C167.772,19.238 168.078,19.484 168.33,19.796 L168.33,19.796 L169.392,18.77 C169.008,18.338 168.546,17.996 168.006,17.744 C167.466,17.492 166.842,17.366 166.134,17.366 C165.486,17.366 164.895,17.483 164.361,17.717 C163.827,17.951 163.365,18.269 162.975,18.671 C162.585,19.073 162.282,19.544 162.066,20.084 C161.85,20.624 161.742,21.2 161.742,21.812 C161.742,22.46 161.844,23.057 162.048,23.603 C162.252,24.149 162.543,24.617 162.921,25.007 C163.299,25.397 163.761,25.703 164.307,25.925 C164.853,26.147 165.462,26.258 166.134,26.258 Z M174.972,26.258 C175.5,26.258 175.971,26.201 176.385,26.087 C176.799,25.973 177.159,25.838 177.465,25.682 C177.771,25.526 178.02,25.364 178.212,25.196 C178.404,25.028 178.548,24.89 178.644,24.782 L178.644,24.782 L177.726,23.81 C177.522,24.038 177.192,24.272 176.736,24.512 C176.28,24.752 175.698,24.872 174.99,24.872 C174.63,24.872 174.288,24.806 173.964,24.674 C173.64,24.542 173.352,24.362 173.1,24.134 C172.848,23.906 172.647,23.636 172.497,23.324 C172.347,23.012 172.266,22.67 172.254,22.298 L172.254,22.298 L178.86,22.298 C178.86,21.662 178.782,21.05 178.626,20.462 C178.47,19.874 178.227,19.352 177.897,18.896 C177.567,18.44 177.144,18.074 176.628,17.798 C176.112,17.522 175.494,17.384 174.774,17.384 C174.162,17.384 173.601,17.498 173.091,17.726 C172.581,17.954 172.14,18.263 171.768,18.653 C171.396,19.043 171.108,19.505 170.904,20.039 C170.7,20.573 170.598,21.146 170.598,21.758 C170.598,22.43 170.703,23.042 170.913,23.594 C171.123,24.146 171.42,24.62 171.804,25.016 C172.188,25.412 172.65,25.718 173.19,25.934 C173.73,26.15 174.324,26.258 174.972,26.258 Z M177.186,21.092 L172.254,21.092 C172.266,20.792 172.332,20.501 172.452,20.219 C172.572,19.937 172.74,19.688 172.956,19.472 C173.172,19.256 173.433,19.082 173.739,18.95 C174.045,18.818 174.39,18.752 174.774,18.752 C175.518,18.752 176.094,18.98 176.502,19.436 C176.91,19.892 177.138,20.444 177.186,21.092 L177.186,21.092 Z M183.774,26.258 C184.23,26.258 184.668,26.204 185.088,26.096 C185.508,25.988 185.88,25.826 186.204,25.61 C186.528,25.394 186.786,25.127 186.978,24.809 C187.17,24.491 187.266,24.122 187.266,23.702 C187.266,23.294 187.191,22.946 187.041,22.658 C186.891,22.37 186.687,22.127 186.429,21.929 C186.171,21.731 185.871,21.569 185.529,21.443 C185.187,21.317 184.818,21.206 184.422,21.11 C183.75,20.954 183.207,20.789 182.793,20.615 C182.379,20.441 182.172,20.174 182.172,19.814 C182.172,19.43 182.328,19.154 182.64,18.986 C182.952,18.818 183.366,18.734 183.882,18.734 C184.386,18.734 184.827,18.812 185.205,18.968 C185.583,19.124 185.898,19.316 186.15,19.544 L186.15,19.544 L187.032,18.428 C186.648,18.092 186.201,17.831 185.691,17.645 C185.181,17.459 184.572,17.366 183.864,17.366 C183.444,17.366 183.039,17.42 182.649,17.528 C182.259,17.636 181.908,17.795 181.596,18.005 C181.284,18.215 181.035,18.473 180.849,18.779 C180.663,19.085 180.57,19.442 180.57,19.85 C180.57,20.246 180.648,20.585 180.804,20.867 C180.96,21.149 181.164,21.389 181.416,21.587 C181.668,21.785 181.953,21.944 182.271,22.064 C182.589,22.184 182.91,22.28 183.234,22.352 C183.69,22.46 184.071,22.559 184.377,22.649 C184.683,22.739 184.929,22.838 185.115,22.946 C185.301,23.054 185.433,23.177 185.511,23.315 C185.589,23.453 185.628,23.618 185.628,23.81 C185.628,24.182 185.448,24.455 185.088,24.629 C184.728,24.803 184.278,24.89 183.738,24.89 C183.186,24.89 182.7,24.8 182.28,24.62 C181.86,24.44 181.5,24.2 181.2,23.9 L181.2,23.9 L180.21,24.98 C181.002,25.832 182.19,26.258 183.774,26.258 Z M194.844,26.24 C195.384,26.24 195.909,26.138 196.419,25.934 C196.929,25.73 197.34,25.418 197.652,24.998 L197.652,24.998 L197.688,26.006 L199.2,26.006 C199.188,25.802 199.182,25.553 199.182,25.259 L199.182,25.259 L199.182,20.39 C199.182,19.43 198.873,18.689 198.255,18.167 C197.637,17.645 196.788,17.384 195.708,17.384 C195.252,17.384 194.85,17.417 194.502,17.483 C194.154,17.549 193.842,17.633 193.566,17.735 C193.29,17.837 193.05,17.948 192.846,18.068 C192.642,18.188 192.468,18.308 192.324,18.428 L192.324,18.428 L193.08,19.526 C193.332,19.346 193.644,19.169 194.016,18.995 C194.388,18.821 194.892,18.734 195.528,18.734 C196.176,18.734 196.689,18.869 197.067,19.139 C197.445,19.409 197.634,19.856 197.634,20.48 L197.634,20.48 L197.634,20.786 C197.574,20.774 197.472,20.762 197.328,20.75 C197.184,20.738 197.016,20.726 196.824,20.714 C196.632,20.702 196.428,20.69 196.212,20.678 C195.996,20.666 195.792,20.66 195.6,20.66 C194.412,20.66 193.503,20.93 192.873,21.47 C192.243,22.01 191.928,22.73 191.928,23.63 C191.928,24.11 192.015,24.515 192.189,24.845 C192.363,25.175 192.591,25.445 192.873,25.655 C193.155,25.865 193.467,26.015 193.809,26.105 C194.151,26.195 194.496,26.24 194.844,26.24 Z M195.276,24.962 C194.724,24.962 194.292,24.845 193.98,24.611 C193.668,24.377 193.512,24.032 193.512,23.576 C193.512,23.396 193.542,23.207 193.602,23.009 C193.662,22.811 193.773,22.631 193.935,22.469 C194.097,22.307 194.319,22.172 194.601,22.064 C194.883,21.956 195.252,21.902 195.708,21.902 C195.9,21.902 196.098,21.908 196.302,21.92 C196.506,21.932 196.698,21.944 196.878,21.956 C197.058,21.968 197.217,21.983 197.355,22.001 C197.493,22.019 197.586,22.034 197.634,22.046 L197.634,22.046 L197.634,23 C197.634,23.252 197.568,23.498 197.436,23.738 C197.304,23.978 197.13,24.188 196.914,24.368 C196.698,24.548 196.449,24.692 196.167,24.8 C195.885,24.908 195.588,24.962 195.276,24.962 Z M203.016,26.006 L203.016,22.118 C203.016,21.71 203.058,21.311 203.142,20.921 C203.226,20.531 203.361,20.183 203.547,19.877 C203.733,19.571 203.982,19.322 204.294,19.13 C204.606,18.938 204.996,18.842 205.464,18.842 C206.076,18.842 206.55,19.025 206.886,19.391 C207.222,19.757 207.39,20.33 207.39,21.11 L207.39,21.11 L207.39,26.006 L209.01,26.006 L209.01,20.984 C209.01,19.892 208.746,19.028 208.218,18.392 C207.69,17.756 206.88,17.438 205.788,17.438 C205.404,17.438 205.059,17.486 204.753,17.582 C204.447,17.678 204.18,17.798 203.952,17.942 C203.724,18.086 203.532,18.245 203.376,18.419 C203.22,18.593 203.088,18.752 202.98,18.896 L202.98,18.896 L202.926,17.636 L201.378,17.636 C201.39,17.936 201.396,18.221 201.396,18.491 L201.396,18.491 L201.396,26.006 L203.016,26.006 Z M214.5,26.258 C214.908,26.258 215.265,26.204 215.571,26.096 C215.877,25.988 216.144,25.862 216.372,25.718 C216.6,25.574 216.783,25.427 216.921,25.277 C217.059,25.127 217.158,25.016 217.218,24.944 L217.218,24.944 L217.272,26.006 L218.856,26.006 C218.844,25.706 218.838,25.421 218.838,25.151 L218.838,25.151 L218.838,14 L217.218,14 L217.218,17.978 C217.038,17.906 216.78,17.798 216.444,17.654 C216.108,17.51 215.64,17.438 215.04,17.438 C214.596,17.438 214.125,17.522 213.627,17.69 C213.129,17.858 212.667,18.125 212.241,18.491 C211.815,18.857 211.464,19.325 211.188,19.895 C210.912,20.465 210.774,21.146 210.774,21.938 C210.774,22.598 210.867,23.195 211.053,23.729 C211.239,24.263 211.5,24.716 211.836,25.088 C212.172,25.46 212.568,25.748 213.024,25.952 C213.48,26.156 213.972,26.258 214.5,26.258 Z M214.86,24.854 C214.44,24.854 214.077,24.779 213.771,24.629 C213.465,24.479 213.213,24.272 213.015,24.008 C212.817,23.744 212.67,23.435 212.574,23.081 C212.478,22.727 212.43,22.352 212.43,21.956 C212.43,21.476 212.499,21.044 212.637,20.66 C212.775,20.276 212.967,19.952 213.213,19.688 C213.459,19.424 213.747,19.22 214.077,19.076 C214.407,18.932 214.77,18.86 215.166,18.86 C215.766,18.86 216.228,18.941 216.552,19.103 C216.876,19.265 217.098,19.394 217.218,19.49 L217.218,19.49 L217.218,22.478 C217.218,22.718 217.173,22.979 217.083,23.261 C216.993,23.543 216.855,23.801 216.669,24.035 C216.483,24.269 216.24,24.464 215.94,24.62 C215.64,24.776 215.28,24.854 214.86,24.854 Z M141.078,40.006 L141.078,35.29 L143.256,35.29 C143.844,35.29 144.387,35.212 144.885,35.056 C145.383,34.9 145.812,34.669 146.172,34.363 C146.532,34.057 146.814,33.676 147.018,33.22 C147.222,32.764 147.324,32.236 147.324,31.636 C147.324,31.228 147.261,30.808 147.135,30.376 C147.009,29.944 146.787,29.554 146.469,29.206 C146.151,28.858 145.725,28.57 145.191,28.342 C144.657,28.114 143.982,28 143.166,28 L143.166,28 L139.368,28 L139.368,40.006 L141.078,40.006 Z M143.238,33.814 L141.078,33.814 L141.078,29.476 L143.238,29.476 C143.958,29.476 144.525,29.671 144.939,30.061 C145.353,30.451 145.56,30.988 145.56,31.672 C145.56,32.344 145.359,32.869 144.957,33.247 C144.555,33.625 143.982,33.814 143.238,33.814 L143.238,33.814 Z M150.924,40.006 L150.924,35.596 C150.924,35.248 150.987,34.918 151.113,34.606 C151.239,34.294 151.41,34.021 151.626,33.787 C151.842,33.553 152.097,33.37 152.391,33.238 C152.685,33.106 153.006,33.04 153.354,33.04 C153.69,33.04 153.966,33.082 154.182,33.166 L154.182,33.166 L154.542,31.654 C154.41,31.606 154.269,31.57 154.119,31.546 C153.969,31.522 153.804,31.51 153.624,31.51 C153.24,31.51 152.901,31.561 152.607,31.663 C152.313,31.765 152.055,31.888 151.833,32.032 C151.611,32.176 151.422,32.335 151.266,32.509 C151.11,32.683 150.984,32.842 150.888,32.986 L150.888,32.986 L150.834,31.636 L149.286,31.636 C149.298,31.912 149.304,32.179 149.304,32.437 L149.304,32.437 L149.304,40.006 L150.924,40.006 Z M157.638,30.142 L157.638,28.324 L155.82,28.324 L155.82,30.142 L157.638,30.142 Z M157.548,40.006 L157.548,31.636 L155.928,31.636 L155.928,40.006 L157.548,40.006 Z M163.848,40.258 C164.568,40.258 165.201,40.129 165.747,39.871 C166.293,39.613 166.752,39.274 167.124,38.854 L167.124,38.854 L166.134,37.81 C165.882,38.122 165.561,38.371 165.171,38.557 C164.781,38.743 164.34,38.836 163.848,38.836 C163.416,38.836 163.029,38.752 162.687,38.584 C162.345,38.416 162.057,38.191 161.823,37.909 C161.589,37.627 161.409,37.303 161.283,36.937 C161.157,36.571 161.094,36.196 161.094,35.812 C161.094,35.416 161.157,35.035 161.283,34.669 C161.409,34.303 161.589,33.979 161.823,33.697 C162.057,33.415 162.345,33.193 162.687,33.031 C163.029,32.869 163.416,32.788 163.848,32.788 C164.34,32.788 164.766,32.878 165.126,33.058 C165.486,33.238 165.792,33.484 166.044,33.796 L166.044,33.796 L167.106,32.77 C166.722,32.338 166.26,31.996 165.72,31.744 C165.18,31.492 164.556,31.366 163.848,31.366 C163.2,31.366 162.609,31.483 162.075,31.717 C161.541,31.951 161.079,32.269 160.689,32.671 C160.299,33.073 159.996,33.544 159.78,34.084 C159.564,34.624 159.456,35.2 159.456,35.812 C159.456,36.46 159.558,37.057 159.762,37.603 C159.966,38.149 160.257,38.617 160.635,39.007 C161.013,39.397 161.475,39.703 162.021,39.925 C162.567,40.147 163.176,40.258 163.848,40.258 Z M172.686,40.258 C173.214,40.258 173.685,40.201 174.099,40.087 C174.513,39.973 174.873,39.838 175.179,39.682 C175.485,39.526 175.734,39.364 175.926,39.196 C176.118,39.028 176.262,38.89 176.358,38.782 L176.358,38.782 L175.44,37.81 C175.236,38.038 174.906,38.272 174.45,38.512 C173.994,38.752 173.412,38.872 172.704,38.872 C172.344,38.872 172.002,38.806 171.678,38.674 C171.354,38.542 171.066,38.362 170.814,38.134 C170.562,37.906 170.361,37.636 170.211,37.324 C170.061,37.012 169.98,36.67 169.968,36.298 L169.968,36.298 L176.574,36.298 C176.574,35.662 176.496,35.05 176.34,34.462 C176.184,33.874 175.941,33.352 175.611,32.896 C175.281,32.44 174.858,32.074 174.342,31.798 C173.826,31.522 173.208,31.384 172.488,31.384 C171.876,31.384 171.315,31.498 170.805,31.726 C170.295,31.954 169.854,32.263 169.482,32.653 C169.11,33.043 168.822,33.505 168.618,34.039 C168.414,34.573 168.312,35.146 168.312,35.758 C168.312,36.43 168.417,37.042 168.627,37.594 C168.837,38.146 169.134,38.62 169.518,39.016 C169.902,39.412 170.364,39.718 170.904,39.934 C171.444,40.15 172.038,40.258 172.686,40.258 Z M174.9,35.092 L169.968,35.092 C169.98,34.792 170.046,34.501 170.166,34.219 C170.286,33.937 170.454,33.688 170.67,33.472 C170.886,33.256 171.147,33.082 171.453,32.95 C171.759,32.818 172.104,32.752 172.488,32.752 C173.232,32.752 173.808,32.98 174.216,33.436 C174.624,33.892 174.852,34.444 174.9,35.092 L174.9,35.092 Z M181.488,40.258 C181.944,40.258 182.382,40.204 182.802,40.096 C183.222,39.988 183.594,39.826 183.918,39.61 C184.242,39.394 184.5,39.127 184.692,38.809 C184.884,38.491 184.98,38.122 184.98,37.702 C184.98,37.294 184.905,36.946 184.755,36.658 C184.605,36.37 184.401,36.127 184.143,35.929 C183.885,35.731 183.585,35.569 183.243,35.443 C182.901,35.317 182.532,35.206 182.136,35.11 C181.464,34.954 180.921,34.789 180.507,34.615 C180.093,34.441 179.886,34.174 179.886,33.814 C179.886,33.43 180.042,33.154 180.354,32.986 C180.666,32.818 181.08,32.734 181.596,32.734 C182.1,32.734 182.541,32.812 182.919,32.968 C183.297,33.124 183.612,33.316 183.864,33.544 L183.864,33.544 L184.746,32.428 C184.362,32.092 183.915,31.831 183.405,31.645 C182.895,31.459 182.286,31.366 181.578,31.366 C181.158,31.366 180.753,31.42 180.363,31.528 C179.973,31.636 179.622,31.795 179.31,32.005 C178.998,32.215 178.749,32.473 178.563,32.779 C178.377,33.085 178.284,33.442 178.284,33.85 C178.284,34.246 178.362,34.585 178.518,34.867 C178.674,35.149 178.878,35.389 179.13,35.587 C179.382,35.785 179.667,35.944 179.985,36.064 C180.303,36.184 180.624,36.28 180.948,36.352 C181.404,36.46 181.785,36.559 182.091,36.649 C182.397,36.739 182.643,36.838 182.829,36.946 C183.015,37.054 183.147,37.177 183.225,37.315 C183.303,37.453 183.342,37.618 183.342,37.81 C183.342,38.182 183.162,38.455 182.802,38.629 C182.442,38.803 181.992,38.89 181.452,38.89 C180.9,38.89 180.414,38.8 179.994,38.62 C179.574,38.44 179.214,38.2 178.914,37.9 L178.914,37.9 L177.924,38.98 C178.716,39.832 179.904,40.258 181.488,40.258 Z" id="BestPlacesandPrices" fill="#141414" fill-rule="nonzero" opacity="0.400000006"></path>
                    </g>
                </g>
            </g>
        </g>
    </g>
</svg>