<svg id="Layer_1" data-name="Layer 1" xmlns="http://www.w3.org/2000/svg" viewBox="0 0 15 15"><path d="M11.65,3.23a.75.75,0,0,0,0-1.5h-4a.5.5,0,0,0-.5.5v.5a.5.5,0,0,0,.5.5V4.48H6.15V.73a.75.75,0,0,0-1.5,0v4.5A.76.76,0,0,0,5.4,6h.41L3.26,14.33a.51.51,0,0,0,.08.45.51.51,0,0,0,.4.2h.48a.5.5,0,0,0,.48-.35l.65-2.15H10l.66,2.15a.5.5,0,0,0,.48.35h.47a.54.54,0,0,0,.41-.2.51.51,0,0,0,.07-.45L9.49,6h.91a.75.75,0,0,0,0-1.5H9.15V3.23ZM8,6l.76,2.5H6.57L7.34,6Zm-1.7,3.5L6.42,9H8.88l.16.5Zm2.92.5.3,1H5.81l.3-1ZM5.4,5.48a.25.25,0,0,1-.25-.25V.73A.25.25,0,0,1,5.4.48a.25.25,0,0,1,.18.08.21.21,0,0,1,.07.17v4A.25.25,0,0,0,5.9,5H7.65v.5Zm-1.18,9H3.74L6.34,6h.47ZM5.5,12l.16-.5h4l.15.5Zm6.06,2.5h-.47L8.49,6H9Zm-3.41-9V3.23h.5V5.48ZM10.4,5a.25.25,0,0,1,.25.25.24.24,0,0,1-.25.25H9.15V5ZM7.65,2.73v-.5h4a.25.25,0,0,1,0,.5Z"/></svg>