<?xml version="1.0" encoding="utf-8"?>
<!-- Generator: Adobe Illustrator 24.2.1, SVG Export Plug-In . SVG Version: 6.00 Build 0)  -->
<svg version="1.1" id="Layer_1" xmlns="http://www.w3.org/2000/svg" xmlns:xlink="http://www.w3.org/1999/xlink" x="0px" y="0px"
	 viewBox="0 0 15 15" style="enable-background:new 0 0 15 15;" xml:space="preserve">
<g>
	<g id="Page-1">
		<g id="_037---Sheet">
			<path id="Shape" d="M14.8,7.9L14,4.3C13.7,3,12.5,2,11.1,2H3.9C2.5,2,1.3,3,1,4.3L0,8.8l0,0c-0.4,1.9,0.9,3.8,2.8,4.2
				C3.1,13,3.3,13,3.6,13h9.8c0.4,0,0.7-0.2,1-0.4c0.2-0.3,0.4-0.6,0.4-1c-0.1-0.6-0.5-1-1-1.2C14.5,9.9,14.9,8.9,14.8,7.9L14.8,7.9
				z M1.5,4.4c0.2-1.1,1.2-2,2.4-2h7.2c1.2,0,2.2,0.8,2.4,1.9L14,6.5c-0.4-0.4-1-0.6-1.6-0.6H3.6C2.6,5.9,1.7,6.3,1,7v0.1L1.5,4.4z
				 M12.3,10.3H3.6c-0.2,0-0.5-0.1-0.6-0.3C2.6,9.7,2.6,9.2,3,8.8c0.2-0.2,0.4-0.2,0.6-0.2h8.7c0.1,0,0.2-0.1,0.2-0.2
				s-0.1-0.2-0.2-0.2H3.6c-0.7,0-1.3,0.5-1.4,1.2c0,0.4,0.1,0.8,0.3,1.1c0.3,0.3,0.6,0.4,1,0.4h9.8c0.5,0,0.8,0.3,0.9,0.8
				c0,0.2-0.1,0.5-0.2,0.7c-0.2,0.2-0.4,0.3-0.6,0.3H3.7c-1.7,0-3.1-1.3-3.2-2.9C0.5,8.8,0.8,8,1.3,7.4c0.6-0.6,1.4-1,2.2-1h8.8
				c1.1-0.2,2.1,0.5,2.3,1.6c0.2,1.1-0.5,2.1-1.6,2.3C12.8,10.3,12.6,10.3,12.3,10.3L12.3,10.3z"/>
			<path id="Shape-2" d="M2.2,4.8L2.2,4.8c0.2,0,0.3-0.1,0.3-0.2c0.1-0.7,0.7-1.2,1.4-1.2h2c0.1,0,0.3-0.1,0.3-0.2
				C6.2,3.1,6.2,3,6,3c0,0-0.1,0-0.1,0h-2C3,3,2.2,3.6,2,4.5c0,0.1,0,0.1,0,0.2C2,4.8,2.1,4.8,2.2,4.8z"/>
			<circle id="Oval" cx="6.9" cy="3.2" r="0.2"/>
		</g>
	</g>
	<rect x="2.7" y="12.7" width="1.6" height="1.4"/>
	<rect x="10.8" y="12.7" width="1.8" height="1.4"/>
</g>
</svg>
