<svg id="Layer_1" data-name="Layer 1" xmlns="http://www.w3.org/2000/svg" viewBox="0 0 15 15"><path d="M14.7,10.38a1.55,1.55,0,0,0-.46-1.11L12,7h0l-.75-.75a.28.28,0,0,0-.4,0,.29.29,0,0,0,0,.39l.57.56-.93.93a.23.23,0,0,0-.08.18,2,2,0,0,1-1.89,1.89.25.25,0,0,0-.18.08l-.93.92L4.71,8.53l.93-.92a.42.42,0,0,0,.08-.18,2,2,0,0,1,.59-1.31,2,2,0,0,1,1.3-.58.37.37,0,0,0,.18-.08l.92-.93.36.35A.27.27,0,0,0,9.26,5a.32.32,0,0,0,.2-.08.27.27,0,0,0,0-.39l-.55-.55h0l-.67-.67a3.12,3.12,0,0,0-2.72-.93c-.43,0-.67,0-.82-.11l-.35-.35,0,0a.27.27,0,0,0,.08-.19.28.28,0,0,0-.08-.2L3.51.6A1,1,0,0,0,2.79.3a1,1,0,0,0-.71.3L.78,1.9a1,1,0,0,0,0,1.42l.86.87a.28.28,0,0,0,.2.08h0A.27.27,0,0,0,2,4.19l0,0,.35.36c.15.14.14.39.11.82a3.12,3.12,0,0,0,.93,2.72l.67.67h0L7.2,11.81h0l2.24,2.24a1.55,1.55,0,0,0,1.11.46,1.58,1.58,0,0,0,1.55-1.31,1.57,1.57,0,0,0,1.28-1.29,1.55,1.55,0,0,0,1.31-1.54ZM1.17,2.93a.46.46,0,0,1,0-.64L2.47,1A.48.48,0,0,1,2.79.86.46.46,0,0,1,3.11,1l.67.67L1.84,3.6ZM3.08,5.37A1.48,1.48,0,0,0,2.8,4.13l-.35-.36L4,2.27l.36.35a1.52,1.52,0,0,0,1.24.28,2.56,2.56,0,0,1,2.3.76l.47.48L7.47,5a2.57,2.57,0,0,0-2.3,2.3l-.85.85-.48-.47a2.59,2.59,0,0,1-.76-2.3Zm10.3,6a1.56,1.56,0,0,0-.42-.8.28.28,0,0,0-.4,0,.29.29,0,0,0,0,.39,1,1,0,0,1,.3.72,1,1,0,0,1-1,1,1,1,0,0,1-.72-.3.27.27,0,0,0-.39,0,.28.28,0,0,0,0,.4,1.56,1.56,0,0,0,.8.42,1,1,0,0,1-1,.77,1,1,0,0,1-.71-.3L7.79,11.62l.86-.86a2.58,2.58,0,0,0,2.29-2.29l.86-.86,2,2.06a1,1,0,0,1,.3.71,1,1,0,0,1-.77,1Z"/><path d="M8.64,6.22a.27.27,0,0,0-.39,0L6.43,8a.28.28,0,0,0,.19.47.28.28,0,0,0,.2-.08L8.64,6.61A.27.27,0,0,0,8.64,6.22Z"/><path d="M9.19,7.16,7.37,9a.27.27,0,0,0,0,.39.27.27,0,0,0,.4,0L9.59,7.55a.27.27,0,0,0,0-.39A.28.28,0,0,0,9.19,7.16Z"/><path d="M9.94,5.78a.27.27,0,0,0,.19.08.32.32,0,0,0,.2-.08.28.28,0,0,0-.4-.4.29.29,0,0,0,0,.39Z"/></svg>